<svg width="203" height="224" viewBox="0 0 203 224" fill="none" xmlns="http://www.w3.org/2000/svg">
<path d="M101.81 4.78802C101.877 1.2719 105.979 -1.29157 108.882 0.692322C121.61 9.38755 146.808 27.1891 159.272 40.0341C176.362 57.6458 193.764 76.4877 200.102 101.994C200.102 101.994 214.413 162.485 173.737 202.768C173.582 202.922 173.443 203.082 173.302 203.249C171.448 205.45 156.013 221.618 101.616 223.22C101.616 223.22 57.2741 225.861 21.0446 190.197C21.0105 190.162 -16.3567 151.867 8.57385 97.2949C8.57385 97.2949 22.3324 58.8237 55.7897 44.6103C56.0265 44.5097 56.2765 44.4307 56.5338 44.4335C58.2866 44.4531 65.6281 45.9952 70.5006 69.5009C76.0662 96.3501 93.7135 42.9257 93.7135 42.9257C93.7569 42.8111 101.475 22.4194 101.81 4.78802ZM30.0563 111.088L30.9537 124.847L45.652 120.37L48.4869 163.815L63.9967 162.804L60.1119 103.265L30.0563 111.088ZM110.324 103.59C106.443 101.442 101.889 100.539 96.6637 100.88C91.7163 101.203 87.4304 102.682 83.8063 105.319C80.234 107.897 77.538 111.507 75.7194 116.147C73.9007 120.788 73.2042 126.361 73.6285 132.865C74.0529 139.369 75.4684 144.804 77.8746 149.169C80.2808 153.534 83.4239 156.79 87.3043 158.937C91.2368 161.026 95.6771 161.909 100.625 161.586C105.85 161.245 110.25 159.786 113.822 157.208C117.39 154.575 120.028 150.941 121.736 146.308C123.499 141.67 124.168 136.099 123.744 129.595C123.319 123.091 121.932 117.655 119.582 113.286C117.287 108.914 114.201 105.682 110.324 103.59ZM175.013 96.9404L138.379 157.95L147.301 157.368L183.935 96.3583L175.013 96.9404ZM186.178 129.457C183.983 128.316 181.495 127.837 178.715 128.018C175.936 128.2 173.504 129.001 171.42 130.421C169.387 131.782 167.829 133.585 166.748 135.833C165.663 138.025 165.207 140.456 165.381 143.124C165.548 145.681 166.314 148.004 167.678 150.093C169.043 152.181 170.823 153.796 173.019 154.936C175.267 156.018 177.781 156.467 180.56 156.286C183.339 156.105 185.745 155.334 187.778 153.974C189.863 152.554 191.418 150.721 192.444 148.477C193.525 146.229 193.983 143.827 193.816 141.269C193.642 138.601 192.875 136.25 191.514 134.218C190.205 132.126 188.426 130.539 186.178 129.457ZM8.13733 140.404L8.93713 152.662L26.9489 151.486L26.149 139.228L8.13733 140.404ZM179.183 135.189C180.517 135.102 181.679 135.361 182.668 135.967C183.708 136.513 184.513 137.299 185.083 138.322C185.707 139.342 186.059 140.464 186.139 141.686C186.223 142.965 186.021 144.151 185.534 145.243C185.102 146.332 184.408 147.242 183.451 147.975C182.546 148.648 181.426 149.028 180.092 149.115C178.758 149.202 177.57 148.973 176.53 148.427C175.541 147.821 174.735 147.008 174.11 145.988C173.537 144.909 173.21 143.758 173.13 142.535C173.051 141.312 173.226 140.156 173.658 139.067C174.145 137.975 174.842 137.092 175.747 136.419C176.704 135.687 177.849 135.276 179.183 135.189ZM97.5621 114.639C99.0074 114.544 100.312 114.85 101.474 115.556C102.689 116.202 103.76 117.221 104.688 118.612C105.672 120 106.453 121.708 107.032 123.735C107.666 125.759 108.067 128.05 108.234 130.607C108.401 133.164 108.301 135.488 107.935 137.577C107.625 139.663 107.072 141.458 106.277 142.961C105.537 144.461 104.608 145.638 103.492 146.492C102.427 147.287 101.173 147.733 99.7272 147.827C98.3375 147.918 97.0354 147.64 95.8209 146.993C94.6027 146.291 93.5294 145.244 92.6012 143.853C91.673 142.462 90.892 140.755 90.2574 138.73C89.6786 136.703 89.3052 134.41 89.1383 131.853C88.9715 129.296 89.0436 126.974 89.3541 124.889C89.7202 122.799 90.2729 121.005 91.0123 119.505C91.7519 118.005 92.6821 116.855 93.8024 116.057C94.919 115.202 96.1724 114.729 97.5621 114.639ZM149.296 99.372C147.1 98.2312 144.584 97.7534 141.749 97.9384C139.025 98.1161 136.62 98.9149 134.536 100.335C132.451 101.755 130.868 103.589 129.787 105.837C128.757 108.025 128.327 110.426 128.498 113.039C128.668 115.652 129.408 118.004 130.716 120.096C132.077 122.128 133.884 123.713 136.135 124.851C138.387 125.988 140.874 126.468 143.598 126.29C146.433 126.105 148.866 125.304 150.895 123.888C152.98 122.468 154.537 120.663 155.566 118.475C156.648 116.227 157.103 113.796 156.932 111.184C156.762 108.571 155.996 106.248 154.635 104.216C153.327 102.124 151.547 100.509 149.296 99.372ZM142.222 105.193C143.612 105.103 144.799 105.332 145.784 105.882C146.769 106.432 147.574 107.216 148.199 108.236C148.824 109.256 149.178 110.406 149.261 111.685C149.341 112.907 149.139 114.093 148.656 115.241C148.169 116.334 147.474 117.244 146.573 117.973C145.668 118.646 144.52 119.027 143.13 119.118C141.852 119.202 140.692 118.971 139.652 118.425C138.663 117.819 137.857 117.006 137.232 115.986C136.604 114.911 136.249 113.761 136.17 112.538C136.086 111.26 136.288 110.074 136.775 108.981C137.262 107.889 137.958 107.006 138.863 106.333C139.824 105.656 140.944 105.277 142.222 105.193Z" fill="#BA5AA1"/>
<path d="M101.81 4.78802C101.877 1.2719 105.979 -1.29157 108.882 0.692322C121.61 9.38755 146.808 27.1891 159.272 40.0341C176.362 57.6458 193.764 76.4877 200.102 101.994C200.102 101.994 214.413 162.485 173.737 202.768C173.582 202.922 173.443 203.082 173.302 203.249C171.448 205.45 156.013 221.618 101.616 223.22C101.616 223.22 57.2741 225.861 21.0446 190.197C21.0105 190.162 -16.3567 151.867 8.57385 97.2949C8.57385 97.2949 22.3324 58.8237 55.7897 44.6103C56.0265 44.5097 56.2765 44.4307 56.5338 44.4335C58.2866 44.4531 65.6281 45.9952 70.5006 69.5009C76.0662 96.3501 93.7135 42.9257 93.7135 42.9257C93.7569 42.8111 101.475 22.4194 101.81 4.78802ZM30.0563 111.088L30.9537 124.847L45.652 120.37L48.4869 163.815L63.9967 162.804L60.1119 103.265L30.0563 111.088ZM110.324 103.59C106.443 101.442 101.889 100.539 96.6637 100.88C91.7163 101.203 87.4304 102.682 83.8063 105.319C80.234 107.897 77.538 111.507 75.7194 116.147C73.9007 120.788 73.2042 126.361 73.6285 132.865C74.0529 139.369 75.4684 144.804 77.8746 149.169C80.2808 153.534 83.4239 156.79 87.3043 158.937C91.2368 161.026 95.6771 161.909 100.625 161.586C105.85 161.245 110.25 159.786 113.822 157.208C117.39 154.575 120.028 150.941 121.736 146.308C123.499 141.67 124.168 136.099 123.744 129.595C123.319 123.091 121.932 117.655 119.582 113.286C117.287 108.914 114.201 105.682 110.324 103.59ZM175.013 96.9404L138.379 157.95L147.301 157.368L183.935 96.3583L175.013 96.9404ZM186.178 129.457C183.983 128.316 181.495 127.837 178.715 128.018C175.936 128.2 173.504 129.001 171.42 130.421C169.387 131.782 167.829 133.585 166.748 135.833C165.663 138.025 165.207 140.456 165.381 143.124C165.548 145.681 166.314 148.004 167.678 150.093C169.043 152.181 170.823 153.796 173.019 154.936C175.267 156.018 177.781 156.467 180.56 156.286C183.339 156.105 185.745 155.334 187.778 153.974C189.863 152.554 191.418 150.721 192.444 148.477C193.525 146.229 193.983 143.827 193.816 141.269C193.642 138.601 192.875 136.25 191.514 134.218C190.205 132.126 188.426 130.539 186.178 129.457ZM8.13733 140.404L8.93713 152.662L26.9489 151.486L26.149 139.228L8.13733 140.404ZM179.183 135.189C180.517 135.102 181.679 135.361 182.668 135.967C183.708 136.513 184.513 137.299 185.083 138.322C185.707 139.342 186.059 140.464 186.139 141.686C186.223 142.965 186.021 144.151 185.534 145.243C185.102 146.332 184.408 147.242 183.451 147.975C182.546 148.648 181.426 149.028 180.092 149.115C178.758 149.202 177.57 148.973 176.53 148.427C175.541 147.821 174.735 147.008 174.11 145.988C173.537 144.909 173.21 143.758 173.13 142.535C173.051 141.312 173.226 140.156 173.658 139.067C174.145 137.975 174.842 137.092 175.747 136.419C176.704 135.687 177.849 135.276 179.183 135.189ZM97.5621 114.639C99.0074 114.544 100.312 114.85 101.474 115.556C102.689 116.202 103.76 117.221 104.688 118.612C105.672 120 106.453 121.708 107.032 123.735C107.666 125.759 108.067 128.05 108.234 130.607C108.401 133.164 108.301 135.488 107.935 137.577C107.625 139.663 107.072 141.458 106.277 142.961C105.537 144.461 104.608 145.638 103.492 146.492C102.427 147.287 101.173 147.733 99.7272 147.827C98.3375 147.918 97.0354 147.64 95.8209 146.993C94.6027 146.291 93.5294 145.244 92.6012 143.853C91.673 142.462 90.892 140.755 90.2574 138.73C89.6786 136.703 89.3052 134.41 89.1383 131.853C88.9715 129.296 89.0436 126.974 89.3541 124.889C89.7202 122.799 90.2729 121.005 91.0123 119.505C91.7519 118.005 92.6821 116.855 93.8024 116.057C94.919 115.202 96.1724 114.729 97.5621 114.639ZM149.296 99.372C147.1 98.2312 144.584 97.7534 141.749 97.9384C139.025 98.1161 136.62 98.9149 134.536 100.335C132.451 101.755 130.868 103.589 129.787 105.837C128.757 108.025 128.327 110.426 128.498 113.039C128.668 115.652 129.408 118.004 130.716 120.096C132.077 122.128 133.884 123.713 136.135 124.851C138.387 125.988 140.874 126.468 143.598 126.29C146.433 126.105 148.866 125.304 150.895 123.888C152.98 122.468 154.537 120.663 155.566 118.475C156.648 116.227 157.103 113.796 156.932 111.184C156.762 108.571 155.996 106.248 154.635 104.216C153.327 102.124 151.547 100.509 149.296 99.372ZM142.222 105.193C143.612 105.103 144.799 105.332 145.784 105.882C146.769 106.432 147.574 107.216 148.199 108.236C148.824 109.256 149.178 110.406 149.261 111.685C149.341 112.907 149.139 114.093 148.656 115.241C148.169 116.334 147.474 117.244 146.573 117.973C145.668 118.646 144.52 119.027 143.13 119.118C141.852 119.202 140.692 118.971 139.652 118.425C138.663 117.819 137.857 117.006 137.232 115.986C136.604 114.911 136.249 113.761 136.17 112.538C136.086 111.26 136.288 110.074 136.775 108.981C137.262 107.889 137.958 107.006 138.863 106.333C139.824 105.656 140.944 105.277 142.222 105.193Z" fill="url(#paint0_linear_15_110)"/>
<defs>
<linearGradient id="paint0_linear_15_110" x1="104.094" y1="-1.32012" x2="104.094" y2="223.264" gradientUnits="userSpaceOnUse">
<stop stop-color="#D95D77"/>
<stop offset="0.225962" stop-color="#BB59A4"/>
<stop offset="0.490385" stop-color="#9354CA"/>
<stop offset="0.774038" stop-color="#8554E4"/>
<stop offset="1" stop-color="#8D52FA"/>
</linearGradient>
</defs>
</svg>
