<?xml version="1.0" encoding="UTF-8" standalone="no"?>
<!DOCTYPE svg PUBLIC "-//W3C//DTD SVG 1.1//EN" "http://www.w3.org/Graphics/SVG/1.1/DTD/svg11.dtd">
<svg xmlns="http://www.w3.org/2000/svg" version="1.1" viewBox="0.00 0.00 241.00 244.00">
<g stroke-width="2.00" fill="none" stroke-linecap="butt">
<path stroke="#a64c56" vector-effect="non-scaling-stroke" d="
  M 114.23 70.56
  Q 116.59 64.74 116.67 58.33
  A 4.32 3.79 56.5 0 1 116.80 57.38
  Q 120.03 45.58 127.37 36.09
  C 129.77 32.99 133.28 29.69 137.21 26.01
  Q 140.98 22.46 143.23 21.48
  Q 147.57 19.61 149.30 17.56"
/>
<path stroke="#aaa3ac" vector-effect="non-scaling-stroke" d="
  M 30.63 217.09
  L 31.54 216.52"
/>
<path stroke="#fba8aa" vector-effect="non-scaling-stroke" d="
  M 31.54 216.52
  Q 31.92 215.64 31.51 215.78"
/>
<path stroke="#aaa3ac" vector-effect="non-scaling-stroke" d="
  M 31.51 215.78
  Q 31.25 215.41 30.82 215.16"
/>
<path stroke="#a64c56" vector-effect="non-scaling-stroke" d="
  M 31.51 215.78
  L 31.54 216.52"
/>
<path stroke="#fba8aa" vector-effect="non-scaling-stroke" d="
  M 189.02 91.04
  Q 178.57 91.20 175.78 91.02
  C 174.09 90.90 172.65 91.40 170.82 91.45
  A 0.93 0.93 0.0 0 1 170.03 89.99
  Q 171.86 87.38 175.02 84.52
  C 182.77 77.52 190.49 70.77 191.17 60.72
  C 191.59 54.52 186.10 49.46 180.62 47.65
  Q 166.39 42.92 157.05 53.15
  C 154.76 55.67 154.33 57.14 153.94 60.47
  Q 153.65 63.00 155.74 63.23
  Q 159.07 63.59 162.21 62.90
  A 1.48 1.45 8.5 0 0 163.16 62.21
  Q 164.10 60.61 165.22 58.46
  C 167.09 54.90 171.18 54.58 174.97 55.14
  C 178.13 55.60 180.30 58.15 180.48 61.42
  Q 180.72 65.67 177.17 69.42
  Q 165.72 81.52 157.03 89.53
  Q 153.17 93.08 153.96 98.12
  A 2.19 2.18 -4.5 0 0 156.12 99.96
  L 189.83 99.96
  A 2.74 2.74 0.0 0 0 192.57 97.22
  L 192.57 94.53
  A 3.49 3.49 0.0 0 0 189.02 91.04"
/>
</g>
<path fill="#f75154" d="
  M 114.23 70.56
  Q 116.59 64.74 116.67 58.33
  A 4.32 3.79 56.5 0 1 116.80 57.38
  Q 120.03 45.58 127.37 36.09
  C 129.77 32.99 133.28 29.69 137.21 26.01
  Q 140.98 22.46 143.23 21.48
  Q 147.57 19.61 149.30 17.56
  Q 154.42 15.16 159.99 13.99
  Q 184.49 8.87 205.58 21.67
  Q 229.53 36.20 232.69 64.24
  C 233.71 73.32 232.87 85.69 229.03 94.48
  C 225.94 101.57 221.70 109.35 215.88 114.68
  Q 203.74 125.79 191.10 129.50
  Q 181.50 132.32 168.57 131.58
  C 153.64 130.72 141.23 124.16 130.62 113.84
  Q 123.99 107.39 119.84 98.16
  Q 113.95 85.06 114.23 70.56
  Z
  M 189.02 91.04
  Q 178.57 91.20 175.78 91.02
  C 174.09 90.90 172.65 91.40 170.82 91.45
  A 0.93 0.93 0.0 0 1 170.03 89.99
  Q 171.86 87.38 175.02 84.52
  C 182.77 77.52 190.49 70.77 191.17 60.72
  C 191.59 54.52 186.10 49.46 180.62 47.65
  Q 166.39 42.92 157.05 53.15
  C 154.76 55.67 154.33 57.14 153.94 60.47
  Q 153.65 63.00 155.74 63.23
  Q 159.07 63.59 162.21 62.90
  A 1.48 1.45 8.5 0 0 163.16 62.21
  Q 164.10 60.61 165.22 58.46
  C 167.09 54.90 171.18 54.58 174.97 55.14
  C 178.13 55.60 180.30 58.15 180.48 61.42
  Q 180.72 65.67 177.17 69.42
  Q 165.72 81.52 157.03 89.53
  Q 153.17 93.08 153.96 98.12
  A 2.19 2.18 -4.5 0 0 156.12 99.96
  L 189.83 99.96
  A 2.74 2.74 0.0 0 0 192.57 97.22
  L 192.57 94.53
  A 3.49 3.49 0.0 0 0 189.02 91.04
  Z"
/>
<path fill="#544758" d="
  M 149.30 17.56
  Q 147.57 19.61 143.23 21.48
  Q 140.98 22.46 137.21 26.01
  C 133.28 29.69 129.77 32.99 127.37 36.09
  Q 120.03 45.58 116.80 57.38
  A 4.32 3.79 56.5 0 0 116.67 58.33
  Q 116.59 64.74 114.23 70.56
  Q 113.44 50.42 124.56 36.31
  Q 133.60 24.83 149.30 17.56
  Z"
/>
<path fill="#ffffff" d="
  M 189.02 91.04
  A 3.49 3.49 0.0 0 1 192.57 94.53
  L 192.57 97.22
  A 2.74 2.74 0.0 0 1 189.83 99.96
  L 156.12 99.96
  A 2.19 2.18 -4.5 0 1 153.96 98.12
  Q 153.17 93.08 157.03 89.53
  Q 165.72 81.52 177.17 69.42
  Q 180.72 65.67 180.48 61.42
  C 180.30 58.15 178.13 55.60 174.97 55.14
  C 171.18 54.58 167.09 54.90 165.22 58.46
  Q 164.10 60.61 163.16 62.21
  A 1.48 1.45 8.5 0 1 162.21 62.90
  Q 159.07 63.59 155.74 63.23
  Q 153.65 63.00 153.94 60.47
  C 154.33 57.14 154.76 55.67 157.05 53.15
  Q 166.39 42.92 180.62 47.65
  C 186.10 49.46 191.59 54.52 191.17 60.72
  C 190.49 70.77 182.77 77.52 175.02 84.52
  Q 171.86 87.38 170.03 89.99
  A 0.93 0.93 0.0 0 0 170.82 91.45
  C 172.65 91.40 174.09 90.90 175.78 91.02
  Q 178.57 91.20 189.02 91.04
  Z"
/>
<path fill="#ffffff" d="
  M 30.63 217.09
  L 31.54 216.52
  Q 31.92 215.64 31.51 215.78
  Q 31.25 215.41 30.82 215.16
  C 24.22 207.02 20.18 201.57 16.16 192.54
  C 6.78 171.45 7.60 147.40 18.03 127.55
  C 28.44 107.76 47.16 94.50 68.89 90.31
  C 75.67 89.01 79.06 87.95 83.91 88.46
  A 2.50 2.48 -12.8 0 1 85.76 89.62
  Q 86.57 90.93 87.10 92.47
  Q 97.14 121.94 121.88 139.66
  Q 123.74 140.99 133.85 146.78
  C 140.66 150.68 145.05 151.58 153.58 153.87
  C 158.02 155.06 158.08 160.75 157.86 164.62
  C 156.79 182.73 151.01 199.32 138.40 212.82
  Q 123.28 229.01 101.26 234.51
  Q 98.74 235.14 89.28 236.20
  Q 83.12 236.89 77.19 236.95
  Q 49.61 237.24 29.51 237.03
  C 24.49 236.98 18.25 236.93 16.68 231.14
  Q 15.73 227.65 19.15 225.16
  Q 24.85 221.01 30.63 217.09
  Z
  M 83.78 200.37
  C 96.67 200.37 108.35 193.94 115.74 183.33
  Q 117.41 180.93 117.80 178.31
  C 118.72 172.04 109.44 166.24 104.90 171.41
  C 98.38 178.82 93.47 184.54 83.77 184.55
  C 74.07 184.55 69.16 178.84 62.63 171.42
  C 58.09 166.26 48.81 172.07 49.74 178.34
  Q 50.13 180.95 51.80 183.35
  C 59.20 193.96 70.88 200.38 83.78 200.37
  Z"
/>
<path fill="#544758" d="
  M 31.51 215.78
  L 31.54 216.52
  L 30.63 217.09
  Q 31.14 216.15 30.82 215.16
  Q 31.25 215.41 31.51 215.78
  Z"
/>
<path fill="#f75154" d="
  M 31.54 216.52
  L 31.51 215.78
  Q 31.92 215.64 31.54 216.52
  Z"
/>
</svg>
