<?xml version="1.0" encoding="UTF-8" standalone="no"?>
<!DOCTYPE svg PUBLIC "-//W3C//DTD SVG 1.1//EN" "http://www.w3.org/Graphics/SVG/1.1/DTD/svg11.dtd">
<svg xmlns="http://www.w3.org/2000/svg" version="1.1" viewBox="0.00 0.00 83.00 74.00">
<g stroke-width="2.00" fill="none" stroke-linecap="butt">
<path stroke="#a4b8ca" vector-effect="non-scaling-stroke" d="
  M 54.60 70.41
  Q 50.76 70.99 47.03 71.60
  Q 43.79 72.14 40.42 72.09
  Q 37.12 72.05 33.79 72.06"
/>
<path stroke="#a4b8ca" vector-effect="non-scaling-stroke" d="
  M 20.52 39.61
  Q 20.90 39.68 21.29 39.61"
/>
<path stroke="#a4b8ca" vector-effect="non-scaling-stroke" d="
  M 23.54 39.61
  L 24.21 39.66"
/>
<path stroke="#a4b8ca" vector-effect="non-scaling-stroke" d="
  M 18.57 47.10
  Q 17.92 47.01 17.70 47.28"
/>
<path stroke="#a4b8ca" vector-effect="non-scaling-stroke" d="
  M 34.89 56.28
  C 34.17 58.51 37.14 59.56 38.72 59.72"
/>
<path stroke="#a4b8ca" vector-effect="non-scaling-stroke" d="
  M 43.78 59.94
  Q 45.56 60.13 46.07 59.24"
/>
<path stroke="#a4b8ca" vector-effect="non-scaling-stroke" d="
  M 46.81 59.06
  Q 48.84 58.07 47.99 56.39"
/>
</g>
<path fill="#fefdfd" d="
  M 54.60 70.41
  Q 50.76 70.99 47.03 71.60
  Q 43.79 72.14 40.42 72.09
  Q 37.12 72.05 33.79 72.06
  C 23.83 70.63 12.13 65.30 6.48 57.04
  C 1.00 49.04 -0.88 38.83 3.87 29.85
  A 2.73 2.64 57.1 0 0 4.16 28.37
  Q 3.49 21.07 2.83 16.25
  C 2.52 13.99 2.88 10.72 2.61 9.14
  A 0.80 0.78 68.9 0 1 2.95 8.34
  Q 4.60 7.25 5.85 8.14
  Q 8.53 10.03 14.47 15.60
  A 1.78 1.78 0.0 0 0 16.96 15.56
  L 17.01 15.51
  A 1.76 1.75 -45.6 0 0 16.99 13.02
  L 9.02 5.21
  A 1.16 1.16 0.0 0 1 10.37 3.35
  L 26.57 11.73
  A 3.98 3.97 54.1 0 0 29.04 12.13
  Q 35.21 11.15 40.25 10.70
  Q 42.56 10.50 54.23 12.25
  A 2.02 2.00 35.4 0 0 55.46 12.05
  L 76.17 1.42
  A 2.64 2.64 0.0 0 1 79.78 2.68
  Q 81.05 5.48 80.89 9.01
  Q 80.43 19.48 78.73 28.69
  A 2.23 2.15 -50.2 0 0 78.81 29.78
  Q 80.14 33.66 80.25 33.99
  C 84.42 46.76 76.70 59.29 65.72 65.72
  Q 59.80 69.19 54.60 70.41
  Z
  M 76.8799 5.1714
  A 1.71 1.71 0.0 0 0 74.4625 5.1039
  L 65.6565 13.4314
  A 1.71 1.71 0.0 0 0 65.5889 15.8487
  L 65.7401 16.0086
  A 1.71 1.71 0.0 0 0 68.1575 16.0761
  L 76.9635 7.7486
  A 1.71 1.71 0.0 0 0 77.0311 5.3313
  L 76.8799 5.1714
  Z
  M 20.52 39.61
  Q 20.90 39.68 21.29 39.61
  L 23.54 39.61
  L 24.21 39.66
  C 26.58 40.27 31.25 41.75 33.34 40.09
  Q 34.75 38.97 36.17 35.89
  A 1.09 1.07 39.3 0 0 36.05 34.79
  C 28.06 24.09 13.97 23.19 6.06 34.53
  A 1.58 1.58 0.0 0 0 6.38 36.68
  L 10.30 39.72
  A 2.18 2.17 -27.9 0 0 11.80 40.18
  L 20.52 39.61
  Z
  M 76.61 35.27
  Q 75.62 33.10 74.02 31.72
  C 65.01 24.03 53.15 25.15 46.51 35.10
  A 1.38 1.35 53.2 0 0 46.35 36.29
  C 48.76 43.66 53.29 40.23 58.55 40.10
  C 62.07 40.01 68.32 41.22 71.15 40.21
  Q 73.76 39.28 76.46 36.28
  A 0.93 0.91 53.9 0 0 76.61 35.27
  Z
  M 18.57 47.10
  Q 17.92 47.01 17.70 47.28
  Q 17.03 47.74 16.97 48.56
  A 1.28 1.26 27.2 0 0 17.27 49.48
  Q 18.45 50.89 20.29 51.70
  Q 30.37 56.15 40.01 49.90
  A 1.67 1.67 0.0 0 1 41.83 49.90
  Q 51.79 56.27 62.40 50.99
  Q 64.01 50.20 64.67 48.89
  A 1.41 1.41 0.0 0 0 62.78 46.99
  C 56.43 50.12 50.44 50.97 44.13 47.11
  C 41.91 45.75 42.08 44.43 44.03 42.88
  Q 44.87 42.22 45.73 40.63
  A 1.54 1.54 0.0 0 0 44.38 38.35
  L 37.02 38.35
  A 1.00 0.99 13.9 0 0 36.14 38.88
  C 35.17 40.67 37.01 42.53 38.52 43.63
  A 1.80 1.79 -44.8 0 1 38.51 46.54
  Q 32.11 51.13 24.55 49.41
  C 22.65 48.97 20.58 47.84 18.57 47.10
  Z
  M 34.89 56.28
  C 34.17 58.51 37.14 59.56 38.72 59.72
  Q 41.21 60.53 43.78 59.94
  Q 45.56 60.13 46.07 59.24
  Q 46.48 59.24 46.81 59.06
  Q 48.84 58.07 47.99 56.39
  C 47.57 55.55 46.68 55.04 45.78 55.55
  Q 41.28 58.12 36.51 55.30
  A 1.01 1.00 50.8 0 0 35.65 55.21
  Q 34.89 55.48 34.89 56.28
  Z"
/>
<path fill="#fefdfd" d="
  M 17.42 36.52
  Q 14.33 37.04 11.83 36.47
  A 1.51 1.51 0.0 0 1 10.85 34.26
  Q 11.84 32.49 14.16 31.37
  Q 22.92 27.16 30.51 33.51
  Q 32.34 35.05 31.32 37.18
  A 0.73 0.71 -70.7 0 1 30.51 37.58
  L 25.63 36.52
  A 0.99 0.97 86.5 0 1 24.93 35.89
  Q 24.61 35.03 24.21 33.78
  C 23.54 31.71 20.09 30.84 19.03 33.23
  Q 18.37 34.71 18.16 35.79
  A 0.92 0.92 0.0 0 1 17.42 36.52
  Z"
/>
<path fill="#fefdfd" d="
  M 64.82 36.31
  L 63.95 33.83
  A 1.95 1.89 11.9 0 0 63.44 33.07
  C 61.44 31.28 59.19 32.10 58.39 34.46
  Q 58.09 35.33 57.84 35.95
  A 1.26 1.24 4.0 0 1 56.96 36.70
  L 52.21 37.86
  A 1.55 1.55 0.0 0 1 50.34 36.02
  Q 50.75 34.17 52.67 32.90
  Q 61.49 27.04 69.82 32.89
  Q 71.62 34.15 71.26 36.15
  A 0.84 0.83 -84.6 0 1 70.44 36.83
  L 65.56 36.83
  A 0.79 0.77 -9.4 0 1 64.82 36.31
  Z"
/>
<path fill="#4a7396" fill-opacity="0.996" d="
  M 21.29 39.61
  Q 20.90 39.68 20.52 39.61
  L 21.29 39.61
  Z"
/>
<path fill="#4a7396" fill-opacity="0.996" d="
  M 24.21 39.66
  L 23.54 39.61
  L 24.21 39.66
  Z"
/>
<path fill="#4a7396" fill-opacity="0.996" d="
  M 18.57 47.10
  L 17.70 47.28
  Q 17.92 47.01 18.57 47.10
  Z"
/>
<path fill="#4a7396" fill-opacity="0.996" d="
  M 34.89 56.28
  C 34.70 58.33 37.25 59.07 38.72 59.72
  C 37.14 59.56 34.17 58.51 34.89 56.28
  Z"
/>
<path fill="#4a7396" fill-opacity="0.996" d="
  M 47.99 56.39
  Q 48.84 58.07 46.81 59.06
  Q 47.84 57.92 47.99 56.39
  Z"
/>
<path fill="#4a7396" fill-opacity="0.996" d="
  M 46.07 59.24
  Q 45.56 60.13 43.78 59.94
  L 46.07 59.24
  Z"
/>
<path fill="#4a7396" fill-opacity="0.996" d="
  M 54.60 70.41
  Q 44.35 75.08 33.79 72.06
  Q 37.12 72.05 40.42 72.09
  Q 43.79 72.14 47.03 71.60
  Q 50.76 70.99 54.60 70.41
  Z"
/>
</svg>
