<?xml version="1.0" encoding="UTF-8" standalone="no"?>
<!DOCTYPE svg PUBLIC "-//W3C//DTD SVG 1.1//EN" "http://www.w3.org/Graphics/SVG/1.1/DTD/svg11.dtd">
<svg xmlns="http://www.w3.org/2000/svg" version="1.1" viewBox="0.00 0.00 184.00 186.00">
<g stroke-width="2.00" fill="none" stroke-linecap="butt">
<path stroke="#d2d8e4" vector-effect="non-scaling-stroke" d="
  M 179.48 58.56
  Q 178.88 56.57 179.14 54.27
  A 1.23 1.21 29.0 0 0 178.88 53.39
  Q 178.46 52.88 178.47 52.51
  Q 178.73 43.49 176.03 34.97
  Q 174.71 30.79 171.45 27.25
  A 2.41 2.35 -79.3 0 1 171.03 26.62
  Q 170.77 26.01 170.43 25.58
  Q 164.43 17.99 156.39 13.35
  A 3.65 3.15 65.2 0 0 155.75 13.06
  Q 154.11 12.48 153.15 11.43
  A 2.94 2.86 -7.7 0 0 152.34 10.83
  Q 147.87 8.62 143.41 8.86
  A 3.18 3.16 -36.1 0 1 142.17 8.67
  Q 140.02 7.89 139.22 7.82
  Q 129.88 7.07 121.01 7.63
  Q 118.71 7.77 107.83 7.11
  Q 99.91 6.63 94.66 6.80
  Q 85.84 7.08 77.98 7.55
  C 69.90 8.03 61.26 7.92 55.01 7.70
  Q 47.39 7.44 41.84 8.50
  Q 41.07 8.65 40.29 8.44
  Q 39.06 8.10 38.76 8.84
  A 0.77 0.76 9.4 0 1 38.08 9.32
  Q 31.92 9.56 25.90 13.71
  Q 22.55 16.02 19.24 18.88
  A 4.83 4.71 -2.6 0 0 18.51 19.66
  Q 15.13 24.07 12.05 26.68
  A 3.16 3.08 -5.0 0 0 11.44 27.39
  Q 10.96 28.14 9.57 31.55
  Q 9.03 32.89 8.00 32.57"
/>
<path stroke="#d2d8e4" vector-effect="non-scaling-stroke" d="
  M 11.96 162.27
  Q 12.14 161.83 11.55 161.71"
/>
<path stroke="#d2d8e4" vector-effect="non-scaling-stroke" d="
  M 11.05 160.83
  Q 11.57 160.30 10.60 160.26"
/>
<path stroke="#d2d8e4" vector-effect="non-scaling-stroke" d="
  M 85.10 144.16
  Q 85.75 145.01 86.50 145.30"
/>
<path stroke="#d2d8e4" vector-effect="non-scaling-stroke" d="
  M 39.32 135.08
  L 39.39 139.43"
/>
<path stroke="#d2d8e4" vector-effect="non-scaling-stroke" d="
  M 39.59 140.03
  Q 39.56 143.53 42.09 144.76"
/>
<path stroke="#d2d8e4" vector-effect="non-scaling-stroke" d="
  M 43.06 145.44
  Q 43.16 145.88 43.92 146.07"
/>
<path stroke="#d2d8e4" vector-effect="non-scaling-stroke" d="
  M 43.92 146.07
  Q 44.34 146.85 44.82 146.47"
/>
<path stroke="#d2d8e4" vector-effect="non-scaling-stroke" d="
  M 49.94 146.94
  Q 50.42 147.17 50.79 146.72"
/>
<path stroke="#d2d8e4" vector-effect="non-scaling-stroke" d="
  M 51.31 146.51
  Q 51.87 146.62 51.97 146.15"
/>
<path stroke="#d2d8e4" vector-effect="non-scaling-stroke" d="
  M 52.65 145.74
  Q 52.69 146.07 52.94 146.07
  A 0.22 0.17 25.5 0 0 53.03 146.05
  Q 56.87 143.92 56.71 139.83"
/>
<path stroke="#d2d8e4" vector-effect="non-scaling-stroke" d="
  M 56.71 139.83
  Q 57.16 138.88 56.86 137.95"
/>
<path stroke="#d2d8e4" vector-effect="non-scaling-stroke" d="
  M 57.18 125.41
  Q 58.70 119.05 57.21 112.67"
/>
<path stroke="#d2d8e4" vector-effect="non-scaling-stroke" d="
  M 128.01 142.51
  Q 129.83 148.50 136.24 148.37
  A 2.72 2.63 32.7 0 0 137.18 148.18
  Q 140.94 146.67 142.03 145.98
  Q 145.55 143.73 144.90 138.45"
/>
<path stroke="#d2d8e4" vector-effect="non-scaling-stroke" d="
  M 145.17 130.30
  L 145.15 117.71"
/>
</g>
<path fill="#a5b0c8" d="
  M 179.48 58.56
  Q 178.88 56.57 179.14 54.27
  A 1.23 1.21 29.0 0 0 178.88 53.39
  Q 178.46 52.88 178.47 52.51
  Q 178.73 43.49 176.03 34.97
  Q 174.71 30.79 171.45 27.25
  A 2.41 2.35 -79.3 0 1 171.03 26.62
  Q 170.77 26.01 170.43 25.58
  Q 164.43 17.99 156.39 13.35
  A 3.65 3.15 65.2 0 0 155.75 13.06
  Q 154.11 12.48 153.15 11.43
  A 2.94 2.86 -7.7 0 0 152.34 10.83
  Q 147.87 8.62 143.41 8.86
  A 3.18 3.16 -36.1 0 1 142.17 8.67
  Q 140.02 7.89 139.22 7.82
  Q 129.88 7.07 121.01 7.63
  Q 118.71 7.77 107.83 7.11
  Q 99.91 6.63 94.66 6.80
  Q 85.84 7.08 77.98 7.55
  C 69.90 8.03 61.26 7.92 55.01 7.70
  Q 47.39 7.44 41.84 8.50
  Q 41.07 8.65 40.29 8.44
  Q 39.06 8.10 38.76 8.84
  A 0.77 0.76 9.4 0 1 38.08 9.32
  Q 31.92 9.56 25.90 13.71
  Q 22.55 16.02 19.24 18.88
  A 4.83 4.71 -2.6 0 0 18.51 19.66
  Q 15.13 24.07 12.05 26.68
  A 3.16 3.08 -5.0 0 0 11.44 27.39
  Q 10.96 28.14 9.57 31.55
  Q 9.03 32.89 8.00 32.57
  C 14.67 18.63 26.17 8.68 41.77 6.82
  C 51.38 5.68 62.11 6.08 74.30 6.07
  Q 107.85 6.04 132.50 6.50
  Q 138.96 6.62 143.47 7.28
  C 158.38 9.47 170.82 18.58 176.40 32.60
  C 179.83 41.22 180.05 48.89 179.48 58.56
  Z"
/>
<path fill="#ffffff" d="
  M 179.48 58.56
  Q 179.55 96.88 179.42 135.25
  Q 179.40 141.45 179.26 143.00
  Q 178.41 152.33 173.07 160.57
  Q 161.90 177.82 142.46 180.89
  Q 136.26 181.87 124.25 181.77
  Q 89.38 181.49 61.50 181.96
  Q 54.12 182.08 44.52 181.30
  Q 23.71 179.59 11.96 162.27
  Q 12.14 161.83 11.55 161.71
  L 11.05 160.83
  Q 11.57 160.30 10.60 160.26
  Q 6.32 152.78 5.34 144.68
  Q 4.32 136.20 4.33 124.75
  Q 4.37 90.13 4.24 55.50
  Q 4.20 42.54 8.00 32.57
  Q 9.03 32.89 9.57 31.55
  Q 10.96 28.14 11.44 27.39
  A 3.16 3.08 -5.0 0 1 12.05 26.68
  Q 15.13 24.07 18.51 19.66
  A 4.83 4.71 -2.6 0 1 19.24 18.88
  Q 22.55 16.02 25.90 13.71
  Q 31.92 9.56 38.08 9.32
  A 0.77 0.76 9.4 0 0 38.76 8.84
  Q 39.06 8.10 40.29 8.44
  Q 41.07 8.65 41.84 8.50
  Q 47.39 7.44 55.01 7.70
  C 61.26 7.92 69.90 8.03 77.98 7.55
  Q 85.84 7.08 94.66 6.80
  Q 99.91 6.63 107.83 7.11
  Q 118.71 7.77 121.01 7.63
  Q 129.88 7.07 139.22 7.82
  Q 140.02 7.89 142.17 8.67
  A 3.18 3.16 -36.1 0 0 143.41 8.86
  Q 147.87 8.62 152.34 10.83
  A 2.94 2.86 -7.7 0 1 153.15 11.43
  Q 154.11 12.48 155.75 13.06
  A 3.65 3.15 65.2 0 1 156.39 13.35
  Q 164.43 17.99 170.43 25.58
  Q 170.77 26.01 171.03 26.62
  A 2.41 2.35 -79.3 0 0 171.45 27.25
  Q 174.71 30.79 176.03 34.97
  Q 178.73 43.49 178.47 52.51
  Q 178.46 52.88 178.88 53.39
  A 1.23 1.21 29.0 0 1 179.14 54.27
  Q 178.88 56.57 179.48 58.56
  Z
  M 85.10 144.16
  Q 85.75 145.01 86.50 145.30
  Q 91.44 148.33 97.09 145.87
  C 100.36 144.44 101.08 140.57 101.12 137.25
  Q 101.71 94.50 100.92 50.75
  C 100.83 45.61 99.82 41.39 94.04 40.59
  Q 85.96 39.47 83.25 46.00
  C 82.29 48.30 82.66 52.01 82.62 54.75
  Q 82.40 68.65 82.78 137.00
  Q 82.80 141.29 85.10 144.16
  Z
  M 39.32 135.08
  L 39.39 139.43
  L 39.59 140.03
  Q 39.56 143.53 42.09 144.76
  L 43.06 145.44
  Q 43.16 145.88 43.92 146.07
  Q 44.34 146.85 44.82 146.47
  Q 47.24 147.42 49.94 146.94
  Q 50.42 147.17 50.79 146.72
  Q 51.11 146.65 51.31 146.51
  Q 51.87 146.62 51.97 146.15
  Q 52.35 146.05 52.65 145.74
  Q 52.69 146.07 52.94 146.07
  A 0.22 0.17 25.5 0 0 53.03 146.05
  Q 56.87 143.92 56.71 139.83
  Q 57.16 138.88 56.86 137.95
  L 57.18 125.41
  Q 58.70 119.05 57.21 112.67
  Q 57.13 98.66 57.01 84.50
  Q 56.96 78.05 51.66 76.58
  C 46.07 75.04 39.55 76.57 39.09 83.46
  Q 38.26 95.70 39.32 135.08
  Z
  M 128.01 142.51
  Q 129.83 148.50 136.24 148.37
  A 2.72 2.63 32.7 0 0 137.18 148.18
  Q 140.94 146.67 142.03 145.98
  Q 145.55 143.73 144.90 138.45
  L 145.17 130.30
  L 145.15 117.71
  Q 145.16 106.28 144.99 102.29
  C 144.76 96.73 140.39 93.31 134.87 94.00
  Q 127.32 94.94 127.13 103.25
  Q 126.85 116.00 127.08 138.50
  Q 127.10 139.98 128.01 142.51
  Z"
/>
<path fill="#a5b0c8" d="
  M 57.21 112.67
  Q 58.70 119.05 57.18 125.41
  L 57.21 112.67
  Z"
/>
<path fill="#a5b0c8" d="
  M 145.17 130.30
  L 145.15 117.71
  L 145.17 130.30
  Z"
/>
<path fill="#a5b0c8" d="
  M 39.32 135.08
  L 39.39 139.43
  L 39.32 135.08
  Z"
/>
<path fill="#a5b0c8" d="
  M 56.86 137.95
  Q 57.16 138.88 56.71 139.83
  L 56.86 137.95
  Z"
/>
<path fill="#a5b0c8" d="
  M 144.90 138.45
  Q 145.55 143.73 142.03 145.98
  Q 140.94 146.67 137.18 148.18
  A 2.72 2.63 32.7 0 1 136.24 148.37
  Q 129.83 148.50 128.01 142.51
  C 132.75 149.88 144.49 147.98 144.90 138.45
  Z"
/>
<path fill="#a5b0c8" d="
  M 56.71 139.83
  Q 56.87 143.92 53.03 146.05
  A 0.22 0.17 25.5 0 1 52.94 146.07
  Q 52.69 146.07 52.65 145.74
  Q 56.04 143.63 56.71 139.83
  Z"
/>
<path fill="#a5b0c8" d="
  M 42.09 144.76
  Q 39.56 143.53 39.59 140.03
  Q 39.89 142.55 42.09 144.76
  Z"
/>
<path fill="#a5b0c8" d="
  M 86.50 145.30
  Q 85.75 145.01 85.10 144.16
  L 86.50 145.30
  Z"
/>
<path fill="#a5b0c8" d="
  M 43.92 146.07
  Q 43.16 145.88 43.06 145.44
  L 43.92 146.07
  Z"
/>
<path fill="#a5b0c8" d="
  M 44.82 146.47
  Q 44.34 146.85 43.92 146.07
  Q 44.47 146.18 44.82 146.47
  Z"
/>
<path fill="#a5b0c8" d="
  M 51.97 146.15
  Q 51.87 146.62 51.31 146.51
  Q 51.59 146.25 51.97 146.15
  Z"
/>
<path fill="#a5b0c8" d="
  M 50.79 146.72
  Q 50.42 147.17 49.94 146.94
  L 50.79 146.72
  Z"
/>
<path fill="#a5b0c8" d="
  M 11.05 160.83
  Q 10.87 160.43 10.60 160.26
  Q 11.57 160.30 11.05 160.83
  Z"
/>
<path fill="#a5b0c8" d="
  M 11.96 162.27
  L 11.55 161.71
  Q 12.14 161.83 11.96 162.27
  Z"
/>
</svg>
