<?xml version="1.0" encoding="UTF-8" standalone="no"?>
<!DOCTYPE svg PUBLIC "-//W3C//DTD SVG 1.1//EN" "http://www.w3.org/Graphics/SVG/1.1/DTD/svg11.dtd">
<svg xmlns="http://www.w3.org/2000/svg" version="1.1" viewBox="0.00 0.00 96.00 96.00">
<g stroke-width="2.00" fill="none" stroke-linecap="butt">
<path stroke="#9997cf" vector-effect="non-scaling-stroke" d="
  M 33.58 33.71
  L 33.99 32.00
  A 0.86 0.86 0.0 0 1 34.83 31.34
  L 69.22 31.34
  A 1.01 1.00 0.0 0 1 70.23 32.34
  L 70.23 54.66
  A 0.39 0.30 -38.0 0 1 70.19 54.82
  Q 69.77 55.75 68.03 55.83
  A 0.83 0.82 -36.6 0 0 67.79 57.43
  C 69.75 58.13 72.14 57.00 72.15 54.68
  Q 72.18 45.82 72.17 32.96
  C 72.16 31.34 71.48 29.44 69.75 29.44
  Q 60.61 29.41 35.48 29.38
  Q 32.04 29.38 31.87 32.74
  Q 31.82 33.64 32.08 34.00
  A 0.84 0.84 0.0 0 0 33.58 33.71"
/>
<path stroke="#9997cf" vector-effect="non-scaling-stroke" d="
  M 64.10 40.40
  A 2.93 2.93 0.0 0 0 61.17 37.47
  L 26.77 37.47
  A 2.93 2.93 0.0 0 0 23.84 40.40
  L 23.84 62.78
  A 2.93 2.93 0.0 0 0 26.77 65.71
  L 61.17 65.71
  A 2.93 2.93 0.0 0 0 64.10 62.78
  L 64.10 40.40"
/>
<path stroke="#9997cf" vector-effect="non-scaling-stroke" d="
  M 62.13 40.43
  A 1.00 1.00 0.0 0 0 61.13 39.43
  L 26.77 39.43
  A 1.00 1.00 0.0 0 0 25.77 40.43
  L 25.77 62.75
  A 1.00 1.00 0.0 0 0 26.77 63.75
  L 61.13 63.75
  A 1.00 1.00 0.0 0 0 62.13 62.75
  L 62.13 40.43"
/>
<path stroke="#9997cf" vector-effect="non-scaling-stroke" d="
  M 46.23 51.59
  C 46.23 52.29 42.50 55.71 39.31 58.92
  A 0.95 0.95 0.0 0 0 39.30 60.25
  L 39.33 60.27
  A 0.91 0.91 0.0 0 0 40.62 60.30
  Q 44.75 56.30 49.07 51.91
  C 49.17 51.81 49.17 51.74 49.17 51.58
  C 49.17 51.43 49.16 51.36 49.07 51.26
  Q 44.74 46.88 40.60 42.89
  A 0.91 0.91 0.0 0 0 39.31 42.92
  L 39.28 42.94
  A 0.95 0.95 0.0 0 0 39.29 44.27
  C 42.49 47.47 46.23 50.89 46.23 51.59"
/>
</g>
<path fill="#332fa0" d="
  M 51.44 0.00
  C 75.75 2.57 93.71 20.17 96.00 44.44
  L 96.00 51.43
  C 93.44 75.76 75.82 93.71 51.55 96.00
  L 44.58 96.00
  C 20.19 93.26 2.39 76.09 0.00 51.55
  L 0.00 44.58
  C 2.55 20.26 20.18 2.28 44.45 0.00
  L 51.44 0.00
  Z
  M 33.58 33.71
  L 33.99 32.00
  A 0.86 0.86 0.0 0 1 34.83 31.34
  L 69.22 31.34
  A 1.01 1.00 0.0 0 1 70.23 32.34
  L 70.23 54.66
  A 0.39 0.30 -38.0 0 1 70.19 54.82
  Q 69.77 55.75 68.03 55.83
  A 0.83 0.82 -36.6 0 0 67.79 57.43
  C 69.75 58.13 72.14 57.00 72.15 54.68
  Q 72.18 45.82 72.17 32.96
  C 72.16 31.34 71.48 29.44 69.75 29.44
  Q 60.61 29.41 35.48 29.38
  Q 32.04 29.38 31.87 32.74
  Q 31.82 33.64 32.08 34.00
  A 0.84 0.84 0.0 0 0 33.58 33.71
  Z
  M 64.10 40.40
  A 2.93 2.93 0.0 0 0 61.17 37.47
  L 26.77 37.47
  A 2.93 2.93 0.0 0 0 23.84 40.40
  L 23.84 62.78
  A 2.93 2.93 0.0 0 0 26.77 65.71
  L 61.17 65.71
  A 2.93 2.93 0.0 0 0 64.10 62.78
  L 64.10 40.40
  Z"
/>
<path fill="#fefefe" d="
  M 33.58 33.71
  A 0.84 0.84 0.0 0 1 32.08 34.00
  Q 31.82 33.64 31.87 32.74
  Q 32.04 29.38 35.48 29.38
  Q 60.61 29.41 69.75 29.44
  C 71.48 29.44 72.16 31.34 72.17 32.96
  Q 72.18 45.82 72.15 54.68
  C 72.14 57.00 69.75 58.13 67.79 57.43
  A 0.83 0.82 -36.6 0 1 68.03 55.83
  Q 69.77 55.75 70.19 54.82
  A 0.39 0.30 -38.0 0 0 70.23 54.66
  L 70.23 32.34
  A 1.01 1.00 -0.0 0 0 69.22 31.34
  L 34.83 31.34
  A 0.86 0.86 0.0 0 0 33.99 32.00
  L 33.58 33.71
  Z"
/>
<path fill="#fefefe" d="
  M 64.10 62.78
  A 2.93 2.93 0.0 0 1 61.17 65.71
  L 26.77 65.71
  A 2.93 2.93 0.0 0 1 23.84 62.78
  L 23.84 40.40
  A 2.93 2.93 0.0 0 1 26.77 37.47
  L 61.17 37.47
  A 2.93 2.93 0.0 0 1 64.10 40.40
  L 64.10 62.78
  Z
  M 62.13 40.43
  A 1.00 1.00 0.0 0 0 61.13 39.43
  L 26.77 39.43
  A 1.00 1.00 0.0 0 0 25.77 40.43
  L 25.77 62.75
  A 1.00 1.00 0.0 0 0 26.77 63.75
  L 61.13 63.75
  A 1.00 1.00 0.0 0 0 62.13 62.75
  L 62.13 40.43
  Z"
/>
<path fill="#332fa0" d="
  M 62.13 62.75
  A 1.00 1.00 0.0 0 1 61.13 63.75
  L 26.77 63.75
  A 1.00 1.00 0.0 0 1 25.77 62.75
  L 25.77 40.43
  A 1.00 1.00 0.0 0 1 26.77 39.43
  L 61.13 39.43
  A 1.00 1.00 0.0 0 1 62.13 40.43
  L 62.13 62.75
  Z
  M 46.23 51.59
  C 46.23 52.29 42.50 55.71 39.31 58.92
  A 0.95 0.95 0.0 0 0 39.30 60.25
  L 39.33 60.27
  A 0.91 0.91 0.0 0 0 40.62 60.30
  Q 44.75 56.30 49.07 51.91
  C 49.17 51.81 49.17 51.74 49.17 51.58
  C 49.17 51.43 49.16 51.36 49.07 51.26
  Q 44.74 46.88 40.60 42.89
  A 0.91 0.91 0.0 0 0 39.31 42.92
  L 39.28 42.94
  A 0.95 0.95 0.0 0 0 39.29 44.27
  C 42.49 47.47 46.23 50.89 46.23 51.59
  Z"
/>
<path fill="#fefefe" d="
  M 49.17 51.58
  C 49.17 51.74 49.17 51.81 49.07 51.91
  Q 44.75 56.30 40.62 60.30
  A 0.91 0.91 0.0 0 1 39.33 60.27
  L 39.30 60.25
  A 0.95 0.95 0.0 0 1 39.31 58.92
  C 42.50 55.71 46.23 52.29 46.23 51.59
  C 46.23 50.89 42.49 47.47 39.29 44.27
  A 0.95 0.95 0.0 0 1 39.28 42.94
  L 39.31 42.92
  A 0.91 0.91 0.0 0 1 40.60 42.89
  Q 44.74 46.88 49.07 51.26
  C 49.16 51.36 49.17 51.43 49.17 51.58
  Z"
/>
</svg>
