<svg xmlns="http://www.w3.org/2000/svg" width="80" height="80" viewBox="0 0 80 80"><path d="M11.514,20.707L20.706,11.515A1,1 60.945,0 1,22.12 11.515L28.484,17.879A1,1 0,0 1,28.484 19.293L19.292,28.485A1,1 60.945,0 1,17.878 28.485L11.514,22.121A1,1 0,0 1,11.514 20.707z" fill="rgba(0,0,0,0)" fill-opacity="0.24" stroke="#FFFFFF" stroke-opacity="0.24" stroke-width="1"/><path d="M23.534,12.929L12.928,23.535" fill="rgba(0,0,0,0)" fill-opacity="0.24" stroke="#FFFFFF" stroke-opacity="0.24" stroke-width="1"/><path d="M24.948,14.343L14.342,24.949" fill="rgba(0,0,0,0)" fill-opacity="0.24" stroke="#FFFFFF" stroke-opacity="0.24" stroke-width="1"/><path d="M51.514,20.707L60.706,11.515A1,1 0,0 1,62.12 11.515L68.484,17.879A1,1 89.977,0 1,68.484 19.293L59.292,28.485A1,1 0,0 1,57.878 28.485L51.514,22.121A1,1 0,0 1,51.514 20.707z" fill="rgba(0,0,0,0)" fill-opacity="0.24" stroke="#FFFFFF" stroke-opacity="0.24" stroke-width="1"/><path d="M61.766,21.768C62.743,20.792 62.743,19.208 61.766,18.232C60.79,17.256 59.207,17.256 58.231,18.232C57.254,19.208 57.254,20.792 58.231,21.768C59.207,22.744 60.79,22.744 61.766,21.768Z" fill="rgba(0,0,0,0)" fill-opacity="0.24" stroke="#FFFFFF" stroke-opacity="0.24" stroke-width="1"/><path d="M52.928,23.535C54.099,22.364 54.099,20.464 52.928,19.293" fill="rgba(0,0,0,0)" fill-opacity="0.24" stroke="#FFFFFF" stroke-opacity="0.24" stroke-width="1"/><path d="M60.706,27.071C59.534,25.9 57.634,25.9 56.463,27.071" fill="rgba(0,0,0,0)" fill-opacity="0.24" stroke="#FFFFFF" stroke-opacity="0.24" stroke-width="1"/><path d="M67.071,16.465C65.899,17.636 65.899,19.536 67.071,20.707" fill="rgba(0,0,0,0)" fill-opacity="0.24" stroke="#FFFFFF" stroke-opacity="0.24" stroke-width="1"/><path d="M59.645,13.282C60.621,14.259 62.204,14.259 63.18,13.282" fill="rgba(0,0,0,0)" fill-opacity="0.24" stroke="#FFFFFF" stroke-opacity="0.24" stroke-width="1"/><path d="M11.514,60.707L20.706,51.515A1,1 101.162,0 1,22.12 51.515L28.484,57.879A1,1 60.377,0 1,28.484 59.293L19.292,68.485A1,1 102.179,0 1,17.878 68.485L11.514,62.121A1,1 128.802,0 1,11.514 60.707z" fill="rgba(0,0,0,0)" fill-opacity="0.24" stroke="#FFFFFF" stroke-opacity="0.24" stroke-width="1"/><path d="M21.766,61.768C22.743,60.792 22.743,59.208 21.766,58.232C20.79,57.256 19.207,57.256 18.231,58.232C17.254,59.208 17.254,60.792 18.231,61.768C19.207,62.744 20.79,62.744 21.766,61.768Z" fill="rgba(0,0,0,0)" fill-opacity="0.24" stroke="#FFFFFF" stroke-opacity="0.24" stroke-width="1"/><path d="M12.928,63.535C14.099,62.364 14.099,60.464 12.928,59.293" fill="rgba(0,0,0,0)" fill-opacity="0.24" stroke="#FFFFFF" stroke-opacity="0.24" stroke-width="1"/><path d="M20.705,67.071C19.534,65.9 17.635,65.9 16.463,67.071" fill="rgba(0,0,0,0)" fill-opacity="0.24" stroke="#FFFFFF" stroke-opacity="0.24" stroke-width="1"/><path d="M27.07,56.465C25.899,57.636 25.899,59.536 27.07,60.707" fill="rgba(0,0,0,0)" fill-opacity="0.24" stroke="#FFFFFF" stroke-opacity="0.24" stroke-width="1"/><path d="M19.645,53.282C20.621,54.258 22.204,54.258 23.18,53.282" fill="rgba(0,0,0,0)" fill-opacity="0.24" stroke="#FFFFFF" stroke-opacity="0.24" stroke-width="1"/><path d="M51.514,60.707L60.706,51.515A1,1 0,0 1,62.12 51.515L68.484,57.879A1,1 93.159,0 1,68.484 59.293L59.292,68.485A1,1 102.179,0 1,57.878 68.485L51.514,62.121A1,1 0,0 1,51.514 60.707z" fill="rgba(0,0,0,0)" fill-opacity="0.24" stroke="#FFFFFF" stroke-opacity="0.24" stroke-width="1"/><path d="M63.534,52.929L52.928,63.535" fill="rgba(0,0,0,0)" fill-opacity="0.24" stroke="#FFFFFF" stroke-opacity="0.24" stroke-width="1"/><path d="M64.949,54.343L54.342,64.949" fill="rgba(0,0,0,0)" fill-opacity="0.24" stroke="#FFFFFF" stroke-opacity="0.24" stroke-width="1"/></svg>