<svg width="26" height="22" viewBox="0 0 26 22" fill="none" xmlns="http://www.w3.org/2000/svg">
<path d="M21.4783 11C21.4783 14.6451 18.4416 17.6 14.6957 17.6C10.9497 17.6 7.91304 14.6451 7.91304 11C7.91304 7.35492 10.9497 4.4 14.6957 4.4C18.4416 4.4 21.4783 7.35492 21.4783 11Z" fill="#A9A9A9"/>
<path fill-rule="evenodd" clip-rule="evenodd" d="M21.4783 0C23.9755 2.48039e-07 26 1.96995 26 4.4V17.6C26 20.0301 23.9755 22 21.4783 22H4.52174C2.02445 22 3.6415e-08 20.0301 0 17.6V4.4C0 1.96995 2.02445 4.42926e-08 4.52174 0H21.4783ZM14.6957 3.3C10.3254 3.3 6.78261 6.74741 6.78261 11C6.78261 15.2526 10.3254 18.7 14.6957 18.7C19.0659 18.7 22.6087 15.2526 22.6087 11C22.6087 6.74741 19.0659 3.3 14.6957 3.3ZM4.23913 7.7C3.77089 7.7 3.3913 8.06937 3.3913 8.525V13.475C3.3913 13.9306 3.77089 14.3 4.23913 14.3C4.70737 14.3 5.08696 13.9306 5.08696 13.475V8.525C5.08696 8.06937 4.70737 7.7 4.23913 7.7Z" fill="#A9A9A9"/>
<path d="M12.826 13.964C12.5681 13.964 12.3893 13.7563 12.3893 13.4447V9.11851H12.3721L11.5709 9.76565C11.4849 9.83755 11.4161 9.86551 11.3198 9.86551C11.1341 9.86551 11 9.70972 11 9.48202C11 9.32224 11.055 9.2024 11.2029 9.08256L12.2174 8.25566C12.4374 8.0759 12.575 8.03995 12.7607 8.03995C13.0736 8.03995 13.2628 8.25965 13.2628 8.61518V13.4447C13.2628 13.7563 13.0839 13.964 12.826 13.964Z" fill="#6B6B6B"/>
<path d="M16.1465 14C15.3727 14 14.7606 13.5606 14.4167 12.7177C14.2345 12.2743 14.1416 11.723 14.1416 11.0679C14.1416 9.14647 14.8982 8 16.1602 8C16.9168 8 17.4945 8.38349 17.7421 8.93076C17.7971 9.0466 17.8212 9.14647 17.8212 9.25832C17.8212 9.49401 17.6767 9.67377 17.4429 9.67377C17.2675 9.67377 17.1575 9.5779 17.0199 9.37417C16.7895 9.00666 16.5247 8.83888 16.1568 8.83888C15.4071 8.83888 15.0082 9.64181 14.991 10.968V11.028H15.0082C15.2042 10.4967 15.6994 10.0972 16.3734 10.0972C17.3294 10.0972 18 10.8961 18 11.9867C18 13.1571 17.2194 14 16.1465 14ZM16.1327 13.1611C16.6864 13.1611 17.1265 12.6578 17.1265 12.0266C17.13 11.3635 16.7139 10.8921 16.143 10.8921C15.5722 10.8921 15.1423 11.3635 15.1423 12.0067C15.1423 12.6538 15.579 13.1611 16.1327 13.1611Z" fill="#6B6B6B"/>
</svg>
