<svg width="21" height="24" viewBox="0 0 21 24" fill="none" xmlns="http://www.w3.org/2000/svg">
<path d="M17.0231 22.695C15.7573 23.9221 14.3752 23.7283 13.0448 23.1471C11.6368 22.5529 10.3452 22.5271 8.85975 23.1471C6.99975 23.9479 6.01809 23.7154 4.90725 22.695C-1.39608 16.1979 -0.466079 6.30375 6.68975 5.94208C8.4335 6.0325 9.64767 6.89792 10.6681 6.97542C12.1923 6.66542 13.6518 5.77417 15.2793 5.89042C17.2298 6.04542 18.7023 6.82042 19.671 8.21542C15.641 10.6308 16.5968 15.9396 20.291 17.425C19.5548 19.3625 18.5989 21.2871 17.0102 22.7079L17.0231 22.695ZM10.5389 5.86458C10.3452 2.98417 12.6831 0.6075 15.3698 0.375C15.7443 3.7075 12.3473 6.1875 10.5389 5.86458Z" fill="#E1E1E1"/>
</svg>
