<?xml version="1.0" encoding="UTF-8" standalone="no"?>
<!DOCTYPE svg PUBLIC "-//W3C//DTD SVG 1.1//EN" "http://www.w3.org/Graphics/SVG/1.1/DTD/svg11.dtd">
<svg xmlns="http://www.w3.org/2000/svg" version="1.1" viewBox="0.00 0.00 154.00 154.00">
<path fill="#e4e1f2" d="
  M 11.63 31.15
  A 1.03 1.00 67.1 0 1 11.95 30.32
  Q 16.73 25.85 22.55 23.09
  A 5.74 5.71 32.1 0 1 25.02 22.53
  L 132.37 22.53
  A 1.68 1.62 -27.5 0 1 133.28 22.80
  Q 137.63 25.60 137.83 29.28
  Q 138.05 33.52 137.92 38.53
  C 137.82 41.95 135.49 46.72 131.50 46.99
  C 121.19 47.69 108.69 47.10 98.18 47.07
  Q 82.50 47.03 23.25 47.23
  Q 23.04 47.23 18.68 46.95
  C 15.08 46.71 12.95 45.68 12.59 41.95
  Q 12.29 38.91 11.63 31.15
  Z"
/>
<path fill="#e4e1f2" d="
  M 123.13 60.47
  A 2.53 2.53 0.0 0 1 125.66 63.00
  L 125.66 113.86
  A 21.80 21.51 0.0 0 1 103.86 135.37
  L 46.54 135.37
  A 21.80 21.51 -0.0 0 1 24.74 113.86
  L 24.74 63.00
  A 2.53 2.53 0.0 0 1 27.27 60.47
  L 123.13 60.47
  Z
  M 93.9198 77.7244
  A 5.86 5.86 0.0 0 0 87.9987 71.9261
  L 62.3601 72.1946
  A 5.86 5.86 0.0 0 0 56.5618 78.1157
  L 56.5802 79.8756
  A 5.86 5.86 0.0 0 0 62.5013 85.6739
  L 88.1399 85.4054
  A 5.86 5.86 0.0 0 0 93.9382 79.4843
  L 93.9198 77.7244
  Z"
/>
</svg>
