<svg width="12" height="12" viewBox="0 0 12 12" fill="none" xmlns="http://www.w3.org/2000/svg">
<g clip-path="url(#clip0_15_30)">
<path d="M7.70196 -0.000922868C7.60965 0.00276944 7.52057 0.0193848 7.4278 0.0424617L1.15365 1.57108C0.411495 1.75292 -0.052813 2.50154 0.129495 3.24415L1.00919 6.83585C1.06249 7.04979 1.16629 7.24784 1.31187 7.41342C1.45746 7.579 1.6406 7.70729 1.84596 7.78754V6.92215C1.84596 5.64969 2.88119 4.61446 4.15365 4.61446H9.96626L9.10088 1.05185C9.02434 0.742163 8.84335 0.468346 8.58843 0.276569C8.33351 0.0847912 8.02072 -0.0132147 7.70196 -0.000922868ZM8.26411 1.98969L8.63934 3.56169L7.08165 3.93646L6.69211 2.37877L8.26411 1.98969ZM4.15365 5.53754C3.38934 5.53754 2.76903 6.15785 2.76903 6.92215V10.6145C2.76903 11.3788 3.38934 11.9991 4.15365 11.9991H10.6152C11.3795 11.9991 11.9998 11.3788 11.9998 10.6145V6.92215C11.9998 6.15785 11.3795 5.53754 10.6152 5.53754H4.15365ZM4.15365 6.27323H10.6152C10.971 6.27323 11.2641 6.56631 11.2641 6.92215V7.38369H3.50473V6.92215C3.50473 6.56631 3.7978 6.27323 4.15365 6.27323ZM3.50473 8.76831H11.2641V10.6145C11.2641 10.9703 10.971 11.2634 10.6152 11.2634H4.15365C3.98184 11.2624 3.81735 11.1937 3.69586 11.0722C3.57437 10.9508 3.5057 10.7863 3.50473 10.6145V8.76831Z" fill="#A0A6B9"/>
</g>
<defs>
<clipPath id="clip0_15_30">
<rect width="12" height="12" fill="white"/>
</clipPath>
</defs>
</svg>
