<svg width="97" height="77" viewBox="0 0 97 77" fill="none" xmlns="http://www.w3.org/2000/svg">
<path d="M20.1316 13.2078C20.1316 13.2078 15.5573 25.2134 15.899 25.7931C16.2406 26.3728 29.7892 28.9018 49.399 28.9018C69.0087 28.9018 83.2954 28.2426 82.899 26.8293C82.5025 25.4161 76.2686 13.2078 76.2686 13.2078C75.223 9.43599 72.4115 6.90177 69.2515 6.90177H27.1487C23.9887 6.90177 21.1772 9.43599 20.1316 13.2078ZM6.67813 29.5358L12.6731 13.4026C15.3056 5.37774 22.3841 0 30.3401 0H65.6741C73.6301 0 80.7086 5.37774 83.3411 13.4026L91.0741 29.5358C94.9561 33.2996 95.6418 36.3101 95.6418 41.8754V70.1701C95.6418 73.8594 93.0385 76.8401 89.587 76.8401H85.0375C81.586 76.8401 78.2133 73.8594 78.2133 70.1701V63.5H18.8867V70.1701C18.8867 73.8594 15.6972 76.8401 12.2457 76.8401H7.69621C4.24471 76.8401 1.63022 73.8594 1.63022 70.1701V41.8754C1.63022 36.3101 1.69898 34.7656 6.67813 29.5358ZM30.0155 46.0889C30.0155 42.7702 27.3343 40.0889 24.0155 40.0889C20.6968 40.0889 18.0155 42.7702 18.0155 46.0889C18.0155 49.4076 20.6968 52.0889 24.0155 52.0889C27.3343 52.0889 30.0155 49.4076 30.0155 46.0889ZM73 52.0889C76.3187 52.0889 79 49.4077 79 46.0889C79 42.7702 76.3187 40.0889 73 40.0889C69.6813 40.0889 67 42.7702 67 46.0889C67 49.4077 69.6813 52.0889 73 52.0889Z" fill="#D6E4FF"/>
<path d="M11.1806 26.2508C6.66963 32.6572 10.205 33.4959 3.9943 31.3429C1.26074 30.6945 -0.475827 28.1524 0.115565 25.6651C0.706958 23.1777 3.40236 21.6869 6.13592 22.3354C8.86947 22.9838 12.7697 23.994 11.1806 26.2508Z" fill="#D6E4FF"/>
<path d="M85.8194 28.8959C90.3304 35.3024 86.795 36.141 93.0057 33.9881C95.7393 33.3396 97.4758 30.7976 96.8844 28.3102C96.293 25.8229 93.5976 24.3321 90.8641 24.9805C88.1305 25.629 84.2303 26.6392 85.8194 28.8959Z" fill="#D6E4FF"/>
</svg>
