<svg width="18" height="18" viewBox="0 0 18 18" fill="none" xmlns="http://www.w3.org/2000/svg">
<path d="M9 0.875C6.84512 0.875 4.77849 1.73102 3.25476 3.25476C1.73102 4.77849 0.875 6.84512 0.875 9C0.875 10.2983 1.18 11.5275 1.72333 12.6183C1.81 12.7933 1.81833 13.0542 1.71917 13.46C1.66665 13.665 1.60549 13.8677 1.53583 14.0675L1.51083 14.1392C1.44917 14.3225 1.3825 14.5225 1.3325 14.7083C1.01417 15.8975 2.1025 16.9858 3.29083 16.6675C3.4775 16.6175 3.67667 16.5508 3.86083 16.4892L3.9325 16.4642C4.13232 16.3945 4.335 16.3333 4.54 16.2808C4.94583 16.1808 5.20667 16.1892 5.38167 16.2767C6.50552 16.8366 7.74437 17.1271 9 17.125C13.4875 17.125 17.125 13.4875 17.125 9C17.125 4.5125 13.4875 0.875 9 0.875Z" fill="#767676"/>
</svg>
