<svg width="31" height="32" viewBox="0 0 31 32" fill="none" xmlns="http://www.w3.org/2000/svg">
<path d="M17.806 7H13.194C8.84605 7 6.6715 7 5.32134 8.33943C4.34821 9.30286 4.0761 10.6903 4 13H27C26.9239 10.6903 26.6518 9.30286 25.6787 8.33943C24.3285 7 22.1539 7 17.806 7Z" fill="#E1E1E1"/>
<path fill-rule="evenodd" clip-rule="evenodd" d="M17.8 25H13.2C8.86335 25 6.69445 25 5.3478 23.733C4.00115 22.4659 4 20.4281 4 16.3514C4 15.8742 4.00077 15.4238 4.0023 15H26.9977C26.9992 15.4238 27 15.8742 27 16.3514C27 20.4281 27 22.467 25.6522 23.733C24.3044 24.9989 22.1367 25 17.8 25ZM20.1518 16.6216C20.6497 16.6216 21.1063 16.6216 21.4766 16.6681C21.886 16.72 22.3172 16.8411 22.6725 17.1762C23.0279 17.5114 23.1579 17.9157 23.2131 18.3005C23.2625 18.6497 23.2625 19.0789 23.2625 19.5459V19.6432C23.2625 20.1114 23.2625 20.5405 23.2131 20.8886C23.1579 21.2735 23.029 21.6789 22.6725 22.013C22.316 22.347 21.886 22.4692 21.4766 22.5211C21.1051 22.5676 20.6486 22.5676 20.1518 22.5676H20.0483C19.5503 22.5676 19.0938 22.5676 18.7235 22.5211C18.3141 22.4692 17.8828 22.3481 17.5274 22.013C17.1721 21.6778 17.0421 21.2735 16.9869 20.8886C16.9375 20.5395 16.9375 20.1103 16.9375 19.6432V19.5459C16.9375 19.0778 16.9375 18.6486 16.9869 18.3005C17.0421 17.9157 17.1709 17.5103 17.5274 17.1762C17.8839 16.8422 18.3141 16.72 18.7235 16.6681C19.0949 16.6216 19.5514 16.6216 20.0483 16.6216H20.1518ZM7.7375 17.973C7.7375 17.7579 7.82837 17.5517 7.99012 17.3996C8.15187 17.2476 8.37125 17.1622 8.6 17.1622H10.9C11.1287 17.1622 11.3481 17.2476 11.5099 17.3996C11.6716 17.5517 11.7625 17.7579 11.7625 17.973C11.7625 18.188 11.6716 18.3942 11.5099 18.5463C11.3481 18.6984 11.1287 18.7838 10.9 18.7838H8.6C8.37125 18.7838 8.15187 18.6984 7.99012 18.5463C7.82837 18.3942 7.7375 18.188 7.7375 17.973ZM7.7375 21.2162C7.7375 21.0012 7.82837 20.7949 7.99012 20.6429C8.15187 20.4908 8.37125 20.4054 8.6 20.4054H13.2C13.4287 20.4054 13.6481 20.4908 13.8099 20.6429C13.9716 20.7949 14.0625 21.0012 14.0625 21.2162C14.0625 21.4313 13.9716 21.6375 13.8099 21.7895C13.6481 21.9416 13.4287 22.027 13.2 22.027H8.6C8.37125 22.027 8.15187 21.9416 7.99012 21.7895C7.82837 21.6375 7.7375 21.4313 7.7375 21.2162Z" fill="#E1E1E1"/>
<path d="M14.0292 18.0876L14.0304 18.0864L14.0344 18.0804C14.056 18.0575 14.0784 18.0426 14.1012 18.036C14.1852 18.0024 14.3028 18 14.5 18C14.6972 18 14.8148 18.0024 14.8988 18.036C14.923 18.0435 14.9468 18.0604 14.9696 18.0864L14.9708 18.0876L14.9712 18.0912L14.9732 18.1032C14.9768 18.1296 14.9828 18.1872 14.988 18.3036C14.9992 18.5556 15 18.9084 15 19.5C15 20.0916 14.9992 20.4444 14.988 20.6964C14.9855 20.7691 14.9799 20.8405 14.9712 20.9088L14.9708 20.9124L14.9696 20.9136L14.9656 20.9196C14.944 20.9425 14.9216 20.9574 14.8988 20.964C14.8148 20.9976 14.6972 21 14.5 21C14.3028 21 14.1852 20.9976 14.1012 20.964C14.077 20.9565 14.0532 20.9396 14.0304 20.9136L14.0292 20.9124L14.0288 20.9088L14.0268 20.8968C14.0192 20.8321 14.0142 20.7648 14.012 20.6964C14.0008 20.4444 14 20.0916 14 19.5C14 18.9084 14.0008 18.5556 14.012 18.3036C14.0145 18.2309 14.0201 18.1595 14.0288 18.0912L14.0292 18.0876Z" fill="#E1E1E1"/>
</svg>
