<svg width="81" height="97" viewBox="0 0 81 97" fill="none" xmlns="http://www.w3.org/2000/svg">
<path d="M47 28C47 32.4183 50.5817 36 55 36H80.5V85C80.5 91.6274 75.1274 97 68.5 97H12C5.37258 97 0 91.6274 0 85V12C0 5.37258 5.37258 0 12 0H47V28ZM28 42C17.5066 42 9 50.5066 9 61C9 71.4934 17.5066 80 28 80C38.4934 80 47 71.4934 47 61C47 50.5066 38.4934 42 28 42ZM25.5 63.5V73C24.1668 73 23.5001 72.7377 22.2686 72.2275C21.0366 71.7173 19.9165 70.9692 18.9736 70.0264C18.0308 69.0835 17.2827 67.9634 16.7725 66.7314C16.2623 65.4999 16 64.8332 16 63.5H25.5ZM40 63.5C40 64.8332 39.7377 65.4999 39.2275 66.7314C38.7173 67.9634 37.9692 69.0835 37.0264 70.0264C36.0835 70.9692 34.9634 71.7173 33.7314 72.2275C32.4999 72.7377 31.8332 73 30.5 73V63.5H40ZM25.5 58.5H16C16 57.1668 16.2623 56.5001 16.7725 55.2686C17.2827 54.0366 18.0308 52.9165 18.9736 51.9736C19.9165 51.0308 21.0366 50.2827 22.2686 49.7725C23.5001 49.2623 24.1668 49 25.5 49V58.5ZM30.5 49C31.8332 49 32.4999 49.2623 33.7314 49.7725C34.9634 50.2827 36.0835 51.0308 37.0264 51.9736C37.9692 52.9165 38.7173 54.0366 39.2275 55.2686C39.7377 56.5001 40 57.1668 40 58.5H30.5V49ZM53.3584 3.82324C53.3586 1.16135 56.7323 -0.083946 58.5361 1.91211L78.6123 24.127C80.2982 25.9926 78.9408 28.9287 76.3926 28.9287H56.3174C54.6831 28.9287 53.3585 27.6348 53.3584 26.0391V3.82324Z" fill="#37BF37"/>
</svg>
