<svg width="21" height="21" viewBox="0 0 21 21" fill="none" xmlns="http://www.w3.org/2000/svg">
<path d="M17.5 6L16.9925 5.56839C15.19 4.04142 14 3.03106 14 1.79837C14 0.788011 14.847 0 15.925 0C16.534 0 17.1185 0.26485 17.5 0.680109C17.8815 0.26485 18.466 0 19.075 0C20.153 0 21 0.788011 21 1.79837C21 3.03106 19.81 4.04142 18.0075 5.56839L17.5 6Z" fill="#2FAFF6"/>
<path fill-rule="evenodd" clip-rule="evenodd" d="M10 1C10.7009 1 11.3848 1.07277 12.0449 1.20996C12.0259 1.33401 12.0127 1.46068 12.0059 1.58984L12 1.79883L12.0078 2.04199C12.0821 3.24403 12.6967 4.18252 13.3154 4.88965C13.9586 5.62481 14.8403 6.36627 15.7002 7.09473L17.5 8.625L18.7959 7.52344L19.2305 7.15137C19.7251 8.33622 20 9.63584 20 11C20 16.5228 15.5228 21 10 21C4.47715 21 0 16.5228 0 11C0 5.47715 4.47715 1 10 1ZM14.6367 13.3633C14.2852 13.0118 13.7148 13.0118 13.3633 13.3633C12.128 14.5985 11.0105 15.0996 10 15.0996C8.98955 15.0996 7.87195 14.5985 6.63672 13.3633C6.28525 13.0118 5.71475 13.0118 5.36328 13.3633C5.01181 13.7148 5.01181 14.2852 5.36328 14.6367C6.79471 16.0681 8.34379 16.9004 10 16.9004C11.6562 16.9004 13.2053 16.0681 14.6367 14.6367C14.9882 14.2852 14.9882 13.7148 14.6367 13.3633ZM6 8C5.44772 8 5 8.44772 5 9V10C5 10.5523 5.44772 11 6 11C6.55228 11 7 10.5523 7 10V9C7 8.44772 6.55228 8 6 8ZM14 8C13.4477 8 13 8.44772 13 9V10C13 10.5523 13.4477 11 14 11C14.5523 11 15 10.5523 15 10V9C15 8.44772 14.5523 8 14 8Z" fill="#2FAFF6"/>
</svg>
