<svg width="15" height="12" viewBox="0 0 15 12" fill="none" xmlns="http://www.w3.org/2000/svg">
<path d="M11.3181 3.21107V6.95732C11.3181 7.38313 11.1393 7.79151 10.8209 8.09261C10.5025 8.3937 10.0707 8.56286 9.6204 8.56286H1.69772C1.24746 8.56286 0.815634 8.3937 0.49725 8.09261C0.178866 7.79151 0 7.38313 0 6.95732V3.21107H11.3181ZM9.6204 0C10.0707 0 10.5025 0.169154 10.8209 0.47025C11.1393 0.771347 11.3181 1.17972 11.3181 1.60554V2.30538H0V1.60554C0 1.17972 0.178866 0.771347 0.49725 0.47025C0.815634 0.169154 1.24746 0 1.69772 0H9.6204Z" fill="#FC5255"/>
<path d="M13.3141 3.11201C13.7976 3.19163 14.3469 3.35398 14.6379 3.72502C14.9288 4.09612 15.0519 4.55475 14.9799 4.99993L14.0742 10.5949C14.0021 11.04 13.7408 11.4357 13.3479 11.6942C12.9551 11.9527 12.4622 12.053 11.9787 11.9733L3.47125 10.5723C2.98774 10.4927 2.55222 10.2397 2.26128 9.86864C2.1357 9.70845 2.04382 9.531 1.98301 9.34633H10.0867C10.5898 9.34626 11.0722 9.14722 11.428 8.79314C11.7837 8.43907 11.9838 7.9591 11.9839 7.45841V3.4182C11.9972 3.12749 12.3087 3.10789 12.3155 3.10751L13.3141 3.11201Z" fill="#FD4F59"/>
</svg>
