<svg width="17" height="17" viewBox="0 0 17 17" fill="none" xmlns="http://www.w3.org/2000/svg">
<path d="M8.93618 0.0111842C13.277 0.231659 16.7683 3.72302 16.9888 8.06382L17 8.5C17 13.0409 13.4215 16.761 8.93618 16.9888L8.5 17C3.95909 17 0.238999 13.4215 0.0111842 8.93618L0 8.5C1.33573e-07 3.81281 3.81281 1.33569e-07 8.5 0L8.93618 0.0111842ZM8.5 0.851243C4.2805 0.851243 0.851243 4.2805 0.851243 8.5L0.861184 8.89269C1.06604 12.9302 4.41219 16.1488 8.5 16.1488L8.89269 16.1388C12.8001 15.9406 15.9406 12.8001 16.1388 8.89269L16.1488 8.5C16.1488 4.41219 12.9302 1.06604 8.89269 0.861184L8.5 0.851243ZM8.08618 3.86477C8.1551 3.8649 8.21896 3.88587 8.27383 3.92317L8.34094 3.98158C8.40236 4.05156 8.44279 4.14993 8.44284 4.26367V8.79327L8.63048 8.91257L11.0251 10.4548L11.0351 10.4622C11.0762 10.4913 11.1139 10.5311 11.1432 10.5803L11.1743 10.6499L11.1954 10.7244C11.2062 10.7864 11.2053 10.8511 11.1892 10.9133C11.1726 10.9769 11.1419 11.0317 11.1047 11.0761L11.0525 11.1283C10.9874 11.1803 10.9144 11.2022 10.8474 11.2029H10.8425C10.8194 11.2026 10.7862 11.2011 10.7518 11.1917C10.7293 11.1854 10.7031 11.175 10.6747 11.1569L10.6648 11.1494L10.6561 11.1457L7.90724 9.36864L7.90227 9.36491C7.85257 9.33134 7.80909 9.28407 7.778 9.22449C7.74656 9.16374 7.72928 9.09313 7.72953 9.02193V4.26367C7.72958 4.14669 7.77121 4.046 7.8364 3.97537L7.88984 3.92814C7.94726 3.88693 8.01531 3.86502 8.08618 3.86477Z" fill="currentColor" />
</svg>
