<svg width="34" height="35" viewBox="0 0 34 35" fill="none" xmlns="http://www.w3.org/2000/svg">
<g clip-path="url(#clip0_30_64)">
<path d="M7.43696 26.2036C6.11503 25.4128 5.45397 25.0158 5.08634 24.3791C4.71872 23.7423 4.70615 22.9726 4.68225 21.4323L4.61765 17.5011L4.68063 13.5699C4.70557 12.0292 4.71708 11.2587 5.08377 10.6216C5.45241 9.98513 6.11293 9.59069 7.43379 8.79865L10.8096 6.77762L14.2454 4.86598C15.5929 4.1174 16.2648 3.74259 16.9998 3.74353C17.7349 3.74448 18.4097 4.11716 19.7552 4.86658L23.1925 6.77696L26.5671 8.79709C27.8878 9.58862 28.5482 9.98438 28.9158 10.6211C29.2834 11.2579 29.296 12.0276 29.3199 13.5679L29.3833 17.4998L29.3203 21.4311C29.2954 22.9717 29.2839 23.7423 28.9172 24.3793C28.5485 25.0158 27.888 25.4102 26.5672 26.2023L23.1913 28.2233L19.7556 30.1349C18.408 30.8835 17.7361 31.2583 17.0011 31.2574C16.2661 31.2564 15.5912 30.8838 14.2458 30.1343L10.8085 28.224L7.43696 26.2036Z" stroke="#E1E1E1" stroke-width="3"/>
<path d="M19.1259 21.1815C21.1587 20.0079 21.8551 17.4087 20.6815 15.3759C19.5079 13.3432 16.9087 12.6467 14.8759 13.8203C12.8432 14.9939 12.1467 17.5932 13.3203 19.6259C14.4939 21.6587 17.0932 22.3551 19.1259 21.1815Z" stroke="#E1E1E1" stroke-width="3"/>
</g>
<defs>
<clipPath id="clip0_30_64">
<rect width="34" height="34" fill="white" transform="translate(0 0.5)"/>
</clipPath>
</defs>
</svg>
