<svg width="107" height="105" viewBox="0 0 107 105" fill="none" xmlns="http://www.w3.org/2000/svg">
<path d="M99.645 60.6738C100.038 57.3835 97.3137 54.6846 94 54.6846H56C52.6863 54.6846 50 51.9984 50 48.6846V10.6846C50 7.37094 47.3012 4.64688 44.0108 5.03965C19.2202 7.99894 0 29.0972 0 54.6846C0 82.2989 22.3858 104.685 50 104.685C75.5874 104.685 96.6857 85.4644 99.645 60.6738Z" fill="#B3B3B3"/>
<path d="M100.5 48.6846C103.814 48.6846 106.539 45.9881 106.126 42.7002C105.576 38.3214 104.424 34.0261 102.694 29.9332C100.181 23.9882 96.4983 18.5865 91.8553 14.0364C87.2124 9.48634 81.7004 5.87703 75.6342 3.41455C71.4202 1.70398 66.9961 0.570071 62.4862 0.0370935C59.1954 -0.351817 56.5 2.37094 56.5 5.68465L56.5 42.6846C56.5 45.9984 59.1863 48.6846 62.5 48.6846H100.5Z" fill="#B3B3B3"/>
</svg>
