<svg width="173" height="160" viewBox="0 0 173 160" fill="none" xmlns="http://www.w3.org/2000/svg">
<path d="M123.253 61C150.455 61 172.507 83.0504 172.507 110.253C172.507 137.456 150.456 159.507 123.253 159.507C96.0504 159.507 74 137.455 74 110.253C74.0002 83.0505 96.0505 61.0002 123.253 61ZM123.253 69.7146C112.501 69.7147 102.19 73.9856 94.588 81.588C86.9856 89.1905 82.7147 99.5014 82.7146 110.253C82.7146 121.004 86.9855 131.316 94.588 138.919C102.19 146.521 112.501 150.792 123.253 150.792C134.004 150.792 144.316 146.521 151.919 138.919C159.521 131.316 163.792 121.004 163.792 110.253C163.792 99.5015 159.521 89.1904 151.919 81.588C144.316 73.9855 134.004 69.7146 123.253 69.7146Z" fill="currentColor"/>
<path d="M123.253 80.9538C124.409 80.9538 125.517 81.4132 126.335 82.2303C127.151 83.0474 127.61 84.1553 127.61 85.3106V105.896H148.196C149.351 105.897 150.459 106.355 151.276 107.172C152.093 107.989 152.553 109.098 152.553 110.253C152.553 111.409 152.093 112.517 151.276 113.335C150.459 114.151 149.351 114.61 148.196 114.61H127.61V135.196C127.61 136.351 127.151 137.459 126.335 138.276C125.517 139.093 124.409 139.553 123.253 139.553C122.098 139.553 120.989 139.093 120.172 138.276C119.355 137.459 118.897 136.351 118.896 135.196V114.61H98.3106C97.1553 114.61 96.0474 114.151 95.2303 113.335C94.4132 112.517 93.9538 111.409 93.9538 110.253C93.9538 109.098 94.4132 107.989 95.2303 107.172C96.0474 106.355 97.1553 105.897 98.3106 105.896H118.896V85.3106C118.897 84.1553 119.355 83.0474 120.172 82.2303C120.989 81.4132 122.098 80.9538 123.253 80.9538Z" fill="currentColor"/>
<path fill-rule="evenodd" clip-rule="evenodd" d="M129 0C136.732 1.64286e-06 143 6.26801 143 14V65.1201C140.49 64.0206 137.872 63.1225 135.164 62.4502V55H7.83594V93C7.83594 96.3136 10.4665 98.9998 13.7119 99H75.293C74.6866 101.594 74.2848 104.266 74.1064 107H14C6.26801 107 0 100.732 0 93V14C8.37589e-07 6.26801 6.26801 0 14 0H129ZM13.7119 31C10.4665 31.0002 7.83594 33.6864 7.83594 37V46H135.164V37C135.164 33.6864 132.534 31.0002 129.288 31H13.7119ZM13.7119 9C10.4665 9.00024 7.83594 11.6864 7.83594 15V24H135.164V15C135.164 11.6864 132.534 9.00022 129.288 9H13.7119Z" fill="currentColor"/>
</svg>
