<svg width="13" height="15" viewBox="0 0 13 15" fill="none" xmlns="http://www.w3.org/2000/svg">
<mask id="path-1-inside-1_1_196" fill="white">
<path d="M9.03337 14.4858C9.8215 14.143 10.51 13.6739 11.0987 13.0787C11.6875 12.4834 12.1517 11.7874 12.4914 10.9906C12.831 10.1938 13.0005 9.33979 13 8.42854C13 8.3119 12.961 8.21442 12.883 8.13612C12.805 8.05781 12.7083 8.01838 12.5929 8.01783C12.4776 8.01728 12.3811 8.05671 12.3037 8.13612C12.2262 8.21552 12.1875 8.313 12.1875 8.42854C12.1875 10.0303 11.6355 11.3893 10.5316 12.5053C9.42771 13.6214 8.08383 14.1791 6.5 14.1786C4.91617 14.178 3.57202 13.6203 2.46756 12.5053C1.3631 11.3903 0.811416 10.0314 0.812499 8.42854C0.813583 6.82566 1.36527 5.46702 2.46756 4.35261C3.56985 3.2382 4.914 2.68018 6.5 2.67853L6.80875 2.67853L5.55395 3.88783C5.47487 3.96778 5.43343 4.06197 5.42964 4.1704C5.42585 4.27883 5.4662 4.3785 5.5507 4.4694C5.64225 4.55976 5.73975 4.60576 5.8432 4.6074C5.9472 4.60905 6.04389 4.56469 6.13327 4.47433L7.91537 2.71714C8.047 2.58407 8.11281 2.42909 8.11281 2.25221C8.11281 2.07533 8.047 1.92035 7.91537 1.78728L6.30911 0.12591C6.23057 0.0459572 6.13659 0.00406448 6.02717 0.000231133C5.91884 -0.00360222 5.81863 0.0399334 5.72655 0.130839C5.64205 0.221196 5.59926 0.318124 5.59817 0.421625C5.59709 0.525125 5.64096 0.622054 5.7298 0.712411L6.80956 1.8571H6.5C5.59812 1.8571 4.75339 2.02851 3.96581 2.37132C3.17823 2.71413 2.48977 3.18344 1.90044 3.77925C1.3111 4.37506 0.847166 5.07054 0.508624 5.86568C0.170082 6.66083 0.000541249 7.51511 -4.17232e-07 8.42854C-0.000542084 9.34198 0.168999 10.1963 0.508624 10.9914C0.848249 11.7866 1.31246 12.4826 1.90125 13.0795C2.49004 13.6764 3.17796 14.1454 3.965 14.4866C4.75204 14.8278 5.59704 14.9989 6.5 15C7.40296 15.0011 8.24796 14.8297 9.035 14.4858"/>
</mask>
<path d="M9.03337 14.4858C9.8215 14.143 10.51 13.6739 11.0987 13.0787C11.6875 12.4834 12.1517 11.7874 12.4914 10.9906C12.831 10.1938 13.0005 9.33979 13 8.42854C13 8.3119 12.961 8.21442 12.883 8.13612C12.805 8.05781 12.7083 8.01838 12.5929 8.01783C12.4776 8.01728 12.3811 8.05671 12.3037 8.13612C12.2262 8.21552 12.1875 8.313 12.1875 8.42854C12.1875 10.0303 11.6355 11.3893 10.5316 12.5053C9.42771 13.6214 8.08383 14.1791 6.5 14.1786C4.91617 14.178 3.57202 13.6203 2.46756 12.5053C1.3631 11.3903 0.811416 10.0314 0.812499 8.42854C0.813583 6.82566 1.36527 5.46702 2.46756 4.35261C3.56985 3.2382 4.914 2.68018 6.5 2.67853L6.80875 2.67853L5.55395 3.88783C5.47487 3.96778 5.43343 4.06197 5.42964 4.1704C5.42585 4.27883 5.4662 4.3785 5.5507 4.4694C5.64225 4.55976 5.73975 4.60576 5.8432 4.6074C5.9472 4.60905 6.04389 4.56469 6.13327 4.47433L7.91537 2.71714C8.047 2.58407 8.11281 2.42909 8.11281 2.25221C8.11281 2.07533 8.047 1.92035 7.91537 1.78728L6.30911 0.12591C6.23057 0.0459572 6.13659 0.00406448 6.02717 0.000231133C5.91884 -0.00360222 5.81863 0.0399334 5.72655 0.130839C5.64205 0.221196 5.59926 0.318124 5.59817 0.421625C5.59709 0.525125 5.64096 0.622054 5.7298 0.712411L6.80956 1.8571H6.5C5.59812 1.8571 4.75339 2.02851 3.96581 2.37132C3.17823 2.71413 2.48977 3.18344 1.90044 3.77925C1.3111 4.37506 0.847166 5.07054 0.508624 5.86568C0.170082 6.66083 0.000541249 7.51511 -4.17232e-07 8.42854C-0.000542084 9.34198 0.168999 10.1963 0.508624 10.9914C0.848249 11.7866 1.31246 12.4826 1.90125 13.0795C2.49004 13.6764 3.17796 14.1454 3.965 14.4866C4.75204 14.8278 5.59704 14.9989 6.5 15C7.40296 15.0011 8.24796 14.8297 9.035 14.4858" fill="currentColor"/>
<path d="M13 8.42854L12.9 8.4286V8.42854H13ZM6.5 2.67853L6.49989 2.57853H6.5V2.67853ZM6.80875 2.67853V2.57853H7.05662L6.87814 2.75054L6.80875 2.67853ZM5.55395 3.88783L5.48284 3.81749L5.48456 3.81583L5.55395 3.88783ZM5.5507 4.4694L5.48039 4.54064L5.47746 4.53749L5.5507 4.4694ZM5.8432 4.6074L5.84162 4.70739L5.84162 4.70739L5.8432 4.6074ZM6.13327 4.47433L6.06216 4.404L6.06305 4.40313L6.13327 4.47433ZM7.91537 2.71714L7.98648 2.78747L7.98558 2.78835L7.91537 2.71714ZM7.91537 1.78728L7.84427 1.85761L7.84348 1.85679L7.91537 1.78728ZM6.30911 0.12591L6.38045 0.0558293L6.381 0.0564016L6.30911 0.12591ZM6.02717 0.000231133L6.02367 0.10017L6.02364 0.100169L6.02717 0.000231133ZM5.72655 0.130839L5.65345 0.0624804L5.65629 0.0596741L5.72655 0.130839ZM5.7298 0.712411L5.80112 0.64229L5.80254 0.643794L5.7298 0.712411ZM6.80956 1.8571L6.8823 1.78849L7.04136 1.9571H6.80956V1.8571ZM9.03337 14.4858L8.99349 14.3941C9.77026 14.0562 10.448 13.5943 11.0277 13.0083L11.0987 13.0787L11.1698 13.149C10.5719 13.7535 9.87274 14.2297 9.07326 14.5775L9.03337 14.4858ZM11.0987 13.0787L11.0277 13.0083C11.6073 12.4223 12.0645 11.737 12.3994 10.9514L12.4914 10.9906L12.5834 11.0298C12.239 11.8378 11.7678 12.5445 11.1698 13.149L11.0987 13.0787ZM12.4914 10.9906L12.3994 10.9514C12.7334 10.1676 12.9005 9.32706 12.9 8.4286L13 8.42854L13.1 8.42849C13.1005 9.35251 12.9286 10.22 12.5834 11.0298L12.4914 10.9906ZM13 8.42854H12.9C12.9 8.33673 12.8704 8.26513 12.8121 8.20669L12.883 8.13612L12.9538 8.06554C13.0516 8.16372 13.1 8.28707 13.1 8.42854H13ZM12.883 8.13612L12.8121 8.20669C12.7537 8.14799 12.6827 8.11826 12.5925 8.11783L12.5929 8.01783L12.5934 7.91783C12.7339 7.9185 12.8563 7.96762 12.9538 8.06554L12.883 8.13612ZM12.5929 8.01783L12.5925 8.11783C12.503 8.1174 12.433 8.14681 12.3753 8.20594L12.3037 8.13612L12.2321 8.06629C12.3293 7.96662 12.4521 7.91716 12.5934 7.91783L12.5929 8.01783ZM12.3037 8.13612L12.3753 8.20594C12.3169 8.26582 12.2875 8.33788 12.2875 8.42854H12.1875H12.0875C12.0875 8.28811 12.1356 8.16522 12.2321 8.06629L12.3037 8.13612ZM12.1875 8.42854H12.2875C12.2875 10.0561 11.7256 11.4404 10.6027 12.5756L10.5316 12.5053L10.4605 12.435C11.5455 11.3381 12.0875 10.0046 12.0875 8.42854H12.1875ZM10.5316 12.5053L10.6027 12.5756C9.47982 13.7109 8.11025 14.2791 6.49996 14.2786L6.5 14.1786L6.50003 14.0786C8.05741 14.0791 9.37559 13.5318 10.4605 12.435L10.5316 12.5053ZM6.5 14.1786L6.49996 14.2786C4.88973 14.278 3.51994 13.7098 2.39652 12.5757L2.46756 12.5053L2.53861 12.4349C3.6241 13.5307 4.9426 14.078 6.50003 14.0786L6.5 14.1786ZM2.46756 12.5053L2.39652 12.5757C1.27305 11.4415 0.711399 10.0571 0.712499 8.42848L0.8125 8.42854L0.912499 8.42861C0.911433 10.0057 1.45315 11.3392 2.53861 12.4349L2.46756 12.5053ZM0.8125 8.42854L0.712499 8.42848C0.7136 6.79994 1.27521 5.41587 2.39647 4.28229L2.46756 4.35261L2.53866 4.42293C1.45533 5.51817 0.913565 6.85137 0.912499 8.42861L0.8125 8.42854ZM2.46756 4.35261L2.39647 4.28229C3.51776 3.14866 4.88757 2.5802 6.49989 2.57853L6.5 2.67853L6.5001 2.77853C4.94042 2.78015 3.62194 3.32774 2.53866 4.42293L2.46756 4.35261ZM6.5 2.67853V2.57853L6.80875 2.57853V2.67853V2.77853L6.5 2.77853V2.67853ZM6.80875 2.67853L6.87814 2.75054L5.62335 3.95984L5.55395 3.88783L5.48456 3.81583L6.73936 2.60653L6.80875 2.67853ZM5.55395 3.88783L5.62505 3.95815C5.56292 4.02096 5.53246 4.09157 5.52958 4.1739L5.42964 4.1704L5.3297 4.16691C5.33441 4.03238 5.38682 3.9146 5.48286 3.81751L5.55395 3.88783ZM5.42964 4.1704L5.52958 4.1739C5.52685 4.25201 5.55465 4.32677 5.62395 4.40132L5.5507 4.4694L5.47746 4.53749C5.37776 4.43023 5.32485 4.30566 5.3297 4.16691L5.42964 4.1704ZM5.5507 4.4694L5.62095 4.39823C5.69885 4.47513 5.77298 4.50628 5.84479 4.50742L5.8432 4.6074L5.84162 4.70739C5.70651 4.70525 5.58564 4.6444 5.48045 4.54057L5.5507 4.4694ZM5.8432 4.6074L5.84478 4.50742C5.91566 4.50854 5.98741 4.47959 6.06217 4.40401L6.13327 4.47433L6.20436 4.54466C6.10037 4.64979 5.97874 4.70956 5.84162 4.70739L5.8432 4.6074ZM6.13327 4.47433L6.06305 4.40313L7.84516 2.64593L7.91537 2.71714L7.98558 2.78835L6.20348 4.54554L6.13327 4.47433ZM7.91537 2.71714L7.84428 2.64682C7.95858 2.53126 8.01281 2.40111 8.01281 2.25221H8.11281H8.21281C8.21281 2.45708 8.13542 2.63688 7.98647 2.78746L7.91537 2.71714ZM8.11281 2.25221H8.01281C8.01281 2.10331 7.95858 1.97316 7.84428 1.8576L7.91537 1.78728L7.98647 1.71696C8.13542 1.86754 8.21281 2.04735 8.21281 2.25221H8.11281ZM7.91537 1.78728L7.84348 1.85679L6.23722 0.195418L6.30911 0.12591L6.381 0.0564016L7.98727 1.71777L7.91537 1.78728ZM6.30911 0.12591L6.23777 0.195988C6.17671 0.13383 6.10682 0.103083 6.02367 0.10017L6.02717 0.000231133L6.03067 -0.0997075C6.16636 -0.0949539 6.28443 -0.0419153 6.38045 0.0558316L6.30911 0.12591ZM6.02717 0.000231133L6.02364 0.100169C5.94809 0.0974953 5.8734 0.126383 5.7968 0.202003L5.72655 0.130839L5.65629 0.0596741C5.76386 -0.0465168 5.88959 -0.1047 6.03071 -0.0997063L6.02717 0.000231133ZM5.72655 0.130839L5.79959 0.199142C5.72864 0.275009 5.69894 0.348894 5.69817 0.422672L5.59817 0.421625L5.49818 0.420578C5.49957 0.287355 5.55546 0.167383 5.65351 0.0625349L5.72655 0.130839ZM5.59817 0.421625L5.69817 0.422672C5.69742 0.493849 5.72647 0.566384 5.80111 0.642305L5.7298 0.712411L5.65849 0.782518C5.55546 0.677723 5.49676 0.556402 5.49818 0.420578L5.59817 0.421625ZM5.7298 0.712411L5.80254 0.643794L6.8823 1.78849L6.80956 1.8571L6.73682 1.92572L5.65705 0.781029L5.7298 0.712411ZM6.80956 1.8571V1.9571H6.5V1.8571L6.5 1.7571H6.80956L6.80956 1.8571ZM6.5 1.8571V1.9571C5.61116 1.9571 4.78009 2.12595 4.00572 2.46301L3.96581 2.37132L3.9259 2.27963C4.7267 1.93106 5.58509 1.7571 6.5 1.7571L6.5 1.8571ZM3.96581 2.37132L4.00572 2.46301C3.2295 2.80087 2.5517 3.26303 1.97153 3.84957L1.90044 3.77925L1.82934 3.70893C2.42784 3.10385 3.12696 2.62738 3.9259 2.27963L3.96581 2.37132ZM1.90044 3.77925L1.97153 3.84957C1.39135 4.43613 0.934388 5.12095 0.600631 5.90486L0.508624 5.86568L0.416616 5.82651C0.759944 5.02012 1.23086 4.31399 1.82934 3.70893L1.90044 3.77925ZM0.508624 5.86568L0.600631 5.90486C0.267652 6.68694 0.100533 7.52784 0.0999992 8.4286L-1.78814e-07 8.42854L-0.100001 8.42849C-0.0994512 7.50239 0.0725124 6.63472 0.416616 5.82651L0.508624 5.86568ZM-1.78814e-07 8.42854L0.0999992 8.4286C0.0994652 9.32929 0.266569 10.1701 0.600587 10.9521L0.508624 10.9914L0.416661 11.0307C0.0714291 10.2224 -0.10055 9.35466 -0.100001 8.42849L-1.78814e-07 8.42854ZM0.508624 10.9914L0.600587 10.9521C0.935446 11.7361 1.39273 12.4216 1.97244 13.0093L1.90125 13.0795L1.83006 13.1497C1.23219 12.5436 0.761053 11.837 0.416661 11.0307L0.508624 10.9914ZM1.90125 13.0795L1.97244 13.0093C2.55203 13.5968 3.22921 14.0587 4.00477 14.3948L3.965 14.4866L3.92523 14.5783C3.12671 14.2322 2.42806 13.756 1.83006 13.1497L1.90125 13.0795ZM3.965 14.4866L4.00477 14.3948C4.77864 14.7303 5.61007 14.8989 6.50012 14.9L6.5 15L6.49988 15.1C5.58401 15.0989 4.72544 14.9252 3.92523 14.5783L3.965 14.4866ZM6.5 15L6.50012 14.9C7.38998 14.9011 8.22123 14.7322 8.99496 14.3941L9.035 14.4858L9.07504 14.5774C8.27469 14.9271 7.41593 15.1011 6.49988 15.1L6.5 15Z" fill="currentColor" mask="url(#path-1-inside-1_1_196)"/>
</svg>
