<svg width="21" height="24" viewBox="0 0 21 24" fill="none" xmlns="http://www.w3.org/2000/svg">
<path fill-rule="evenodd" clip-rule="evenodd" d="M0 12.0632C0 11.1736 0.353385 10.3204 0.982413 9.6914C1.61144 9.06237 2.46459 8.70898 3.35417 8.70898H16.7708C17.6604 8.70898 18.5136 9.06237 19.1426 9.6914C19.7716 10.3204 20.125 11.1736 20.125 12.0632V19.8895C20.125 20.7791 19.7716 21.6323 19.1426 22.2613C18.5136 22.8903 17.6604 23.2437 16.7708 23.2437H3.35417C2.46459 23.2437 1.61144 22.8903 0.982413 22.2613C0.353385 21.6323 0 20.7791 0 19.8895V12.0632ZM11.1806 14.2993C11.1806 14.0027 11.0628 13.7184 10.8531 13.5087C10.6434 13.299 10.359 13.1812 10.0625 13.1812C9.76597 13.1812 9.48159 13.299 9.27192 13.5087C9.06224 13.7184 8.94444 14.0027 8.94444 14.2993V17.6534C8.94444 17.95 9.06224 18.2343 9.27192 18.444C9.48159 18.6537 9.76597 18.7715 10.0625 18.7715C10.359 18.7715 10.6434 18.6537 10.8531 18.444C11.0628 18.2343 11.1806 17.95 11.1806 17.6534V14.2993Z" fill="#E1E1E1"/>
<path d="M5.58984 9.82639V6.47222C5.58984 5.28611 6.06102 4.14859 6.89973 3.30988C7.73843 2.47118 8.87596 2 10.0621 2C11.2482 2 12.3857 2.47118 13.2244 3.30988C14.0631 4.14859 14.5343 5.28611 14.5343 6.47222V9.82639" stroke="#E1E1E1" stroke-width="2.58333" stroke-linecap="round" stroke-linejoin="round"/>
</svg>
