<?xml version="1.0" encoding="UTF-8" standalone="no"?>
<!DOCTYPE svg PUBLIC "-//W3C//DTD SVG 1.1//EN" "http://www.w3.org/Graphics/SVG/1.1/DTD/svg11.dtd">
<svg xmlns="http://www.w3.org/2000/svg" version="1.1" viewBox="0.00 0.00 92.00 92.00">
<g stroke-width="2.00" fill="none" stroke-linecap="butt">
<path stroke="#a2ccfe" vector-effect="non-scaling-stroke" d="
  M 30.47 65.32
  L 27.68 70.75
  A 1.46 1.46 0.0 0 0 28.84 72.87
  Q 29.34 72.96 30.45 72.67
  Q 32.28 72.19 39.72 69.42
  A 8.46 8.41 -53.0 0 1 43.33 68.90
  Q 55.72 69.78 64.62 62.25
  C 76.52 52.18 73.73 34.71 60.34 27.71
  Q 46.12 20.28 31.81 27.58
  C 16.27 35.51 15.81 55.24 30.24 64.46
  A 0.67 0.66 -60.5 0 1 30.47 65.32"
/>
<path stroke="#a2ccfe" vector-effect="non-scaling-stroke" d="
  M 45.93 58.07
  Q 46.39 58.07 47.49 57.00
  Q 51.38 53.21 54.75 49.61
  A 1.79 1.79 0.0 0 0 54.76 47.18
  L 54.71 47.12
  A 1.72 1.71 -42.5 0 0 52.28 47.02
  L 48.55 50.47
  A 0.48 0.48 0.0 0 1 47.75 50.10
  Q 47.90 44.38 47.89 38.62
  Q 47.89 35.29 45.98 35.28
  Q 44.07 35.28 44.05 38.61
  Q 44.02 44.37 44.14 50.09
  A 0.48 0.48 0.0 0 1 43.34 50.46
  L 39.63 46.99
  A 1.72 1.71 42.8 0 0 37.20 47.08
  L 37.15 47.14
  A 1.79 1.79 0.0 0 0 37.15 49.57
  Q 40.50 53.19 44.38 56.99
  Q 45.47 58.06 45.93 58.07"
/>
</g>
<path fill="#459afd" d="
  M 90.90 46.46
  A 44.97 44.97 0.0 0 1 45.93 91.43
  A 44.97 44.97 0.0 0 1 0.96 46.46
  A 44.97 44.97 0.0 0 1 45.93 1.49
  A 44.97 44.97 0.0 0 1 90.90 46.46
  Z
  M 30.47 65.32
  L 27.68 70.75
  A 1.46 1.46 0.0 0 0 28.84 72.87
  Q 29.34 72.96 30.45 72.67
  Q 32.28 72.19 39.72 69.42
  A 8.46 8.41 -53.0 0 1 43.33 68.90
  Q 55.72 69.78 64.62 62.25
  C 76.52 52.18 73.73 34.71 60.34 27.71
  Q 46.12 20.28 31.81 27.58
  C 16.27 35.51 15.81 55.24 30.24 64.46
  A 0.67 0.66 -60.5 0 1 30.47 65.32
  Z"
/>
<path fill="#fefefe" d="
  M 30.47 65.32
  A 0.67 0.66 -60.5 0 0 30.24 64.46
  C 15.81 55.24 16.27 35.51 31.81 27.58
  Q 46.12 20.28 60.34 27.71
  C 73.73 34.71 76.52 52.18 64.62 62.25
  Q 55.72 69.78 43.33 68.90
  A 8.46 8.41 -53.0 0 0 39.72 69.42
  Q 32.28 72.19 30.45 72.67
  Q 29.34 72.96 28.84 72.87
  A 1.46 1.46 0.0 0 1 27.68 70.75
  L 30.47 65.32
  Z
  M 45.93 58.07
  Q 46.39 58.07 47.49 57.00
  Q 51.38 53.21 54.75 49.61
  A 1.79 1.79 0.0 0 0 54.76 47.18
  L 54.71 47.12
  A 1.72 1.71 -42.5 0 0 52.28 47.02
  L 48.55 50.47
  A 0.48 0.48 0.0 0 1 47.75 50.10
  Q 47.90 44.38 47.89 38.62
  Q 47.89 35.29 45.98 35.28
  Q 44.07 35.28 44.05 38.61
  Q 44.02 44.37 44.14 50.09
  A 0.48 0.48 0.0 0 1 43.34 50.46
  L 39.63 46.99
  A 1.72 1.71 42.8 0 0 37.20 47.08
  L 37.15 47.14
  A 1.79 1.79 0.0 0 0 37.15 49.57
  Q 40.50 53.19 44.38 56.99
  Q 45.47 58.06 45.93 58.07
  Z"
/>
<path fill="#459afd" d="
  M 45.98 35.28
  Q 47.89 35.29 47.89 38.62
  Q 47.90 44.38 47.75 50.10
  A 0.48 0.48 0.0 0 0 48.55 50.47
  L 52.28 47.02
  A 1.72 1.71 -42.5 0 1 54.71 47.12
  L 54.76 47.18
  A 1.79 1.79 0.0 0 1 54.75 49.61
  Q 51.38 53.21 47.49 57.00
  Q 46.39 58.07 45.93 58.07
  Q 45.47 58.06 44.38 56.99
  Q 40.50 53.19 37.15 49.57
  A 1.79 1.79 0.0 0 1 37.15 47.14
  L 37.20 47.08
  A 1.72 1.71 42.8 0 1 39.63 46.99
  L 43.34 50.46
  A 0.48 0.48 0.0 0 0 44.14 50.09
  Q 44.02 44.37 44.05 38.61
  Q 44.07 35.28 45.98 35.28
  Z"
/>
</svg>
