<?xml version="1.0" encoding="UTF-8" standalone="no"?>
<!DOCTYPE svg PUBLIC "-//W3C//DTD SVG 1.1//EN" "http://www.w3.org/Graphics/SVG/1.1/DTD/svg11.dtd">
<svg xmlns="http://www.w3.org/2000/svg" version="1.1" viewBox="0.00 0.00 349.00 314.00">
<g stroke-width="2.00" fill="none" stroke-linecap="butt">
<path stroke="#e6e3e8" vector-effect="non-scaling-stroke" d="
  M 291.13 29.59
  Q 293.68 30.06 296.01 28.88
  A 2.16 2.16 0.0 0 0 296.67 28.37
  Q 298.91 25.85 300.62 25.33
  C 304.24 24.23 307.83 23.77 308.61 21.39
  A 1.14 1.14 0.0 0 1 309.34 20.66
  Q 316.27 18.33 323.25 19.47"
/>
<path stroke="#e6e3e8" vector-effect="non-scaling-stroke" d="
  M 114.56 292.58
  Q 114.36 292.01 113.72 292.36"
/>
<path stroke="#e6e3e8" vector-effect="non-scaling-stroke" d="
  M 12.77 176.61
  Q 13.55 172.69 12.92 168.71"
/>
<path stroke="#e6e3e8" vector-effect="non-scaling-stroke" d="
  M 18.78 70.00
  L 18.77 65.30"
/>
<path stroke="#e6e3e8" vector-effect="non-scaling-stroke" d="
  M 18.62 64.71
  L 18.60 63.79"
/>
<path stroke="#e6e3e8" vector-effect="non-scaling-stroke" d="
  M 74.26 174.39
  Q 76.48 175.67 79.74 175.17
  Q 87.44 174.00 95.66 174.12
  A 5.26 5.18 -38.3 0 1 96.57 174.22
  Q 105.86 176.20 114.61 175.55
  A 1.18 1.12 60.1 0 1 115.38 175.78
  L 119.07 178.56
  A 1.66 1.64 -24.1 0 0 119.90 178.87
  Q 126.53 179.39 131.99 179.05
  Q 135.77 178.82 138.16 177.05
  A 3.92 3.60 11.9 0 1 138.85 176.64
  Q 142.43 175.06 145.33 173.57
  Q 145.81 173.32 146.19 173.40
  C 147.50 173.68 147.19 174.70 149.17 174.59
  A 0.73 0.73 0.0 0 1 149.88 175.07
  Q 151.16 178.60 151.68 180.40
  Q 152.36 182.77 153.77 183.70
  Q 156.55 185.52 160.95 185.98"
/>
<path stroke="#e6e3e8" vector-effect="non-scaling-stroke" d="
  M 161.74 191.22
  L 161.83 192.00"
/>
<path stroke="#e6e3e8" vector-effect="non-scaling-stroke" d="
  M 153.20 163.66
  Q 153.23 161.76 153.87 160.31
  A 2.16 2.13 81.5 0 1 154.41 159.57
  L 157.10 157.20
  A 1.15 1.13 -23.9 0 0 157.48 156.23
  C 157.39 155.07 156.14 153.71 155.78 152.46
  C 154.80 149.11 154.16 147.20 152.44 144.77
  A 2.60 2.55 -3.6 0 0 151.56 144.01
  Q 148.69 142.55 147.83 141.05
  Q 146.82 139.28 145.69 138.73
  C 143.34 137.59 143.24 135.25 141.00 133.76
  Q 138.35 131.99 136.77 129.66
  A 1.43 1.35 87.4 0 0 136.41 129.31
  L 128.10 124.01
  A 2.34 1.71 -8.9 0 0 127.73 123.82
  Q 124.98 122.74 123.56 121.59
  A 4.98 4.97 75.5 0 0 122.36 120.88
  Q 116.79 118.53 112.96 117.15
  C 110.06 116.10 107.16 115.81 104.14 114.72
  A 2.86 2.82 -34.1 0 0 103.23 114.55
  L 95.33 114.28
  A 0.29 0.24 50.7 0 1 95.23 114.26
  Q 92.13 113.07 89.96 113.23
  Q 84.22 113.66 78.73 114.45
  A 1.43 1.42 17.1 0 0 77.86 114.91
  Q 76.86 116.05 76.21 117.62"
/>
<path stroke="#e6e3e8" vector-effect="non-scaling-stroke" d="
  M 217.4900 179.3031
  A 1.31 0.08 -0.3 0 0 216.1796 179.2300
  A 1.31 0.08 -0.3 0 0 214.8700 179.3169
  A 1.31 0.08 -0.3 0 0 216.1804 179.3900
  A 1.31 0.08 -0.3 0 0 217.4900 179.3031"
/>
<path stroke="#e6e3e8" vector-effect="non-scaling-stroke" d="
  M 132.20 153.70
  Q 131.68 155.15 132.07 157.03"
/>
<path stroke="#e6e3e8" vector-effect="non-scaling-stroke" d="
  M 53.06 151.87
  L 54.03 149.91
  A 2.06 2.01 -8.7 0 1 54.53 149.25
  C 56.29 147.68 57.26 145.73 59.74 144.41
  A 1.17 1.16 -6.4 0 0 60.34 143.66
  L 60.76 142.11"
/>
<path stroke="#e6e3e8" vector-effect="non-scaling-stroke" d="
  M 280.43 141.09
  Q 284.89 144.89 288.08 148.14
  Q 290.08 150.19 291.26 149.49"
/>
</g>
<path fill="#ffffff" d="
  M 291.13 29.59
  Q 293.68 30.06 296.01 28.88
  A 2.16 2.16 0.0 0 0 296.67 28.37
  Q 298.91 25.85 300.62 25.33
  C 304.24 24.23 307.83 23.77 308.61 21.39
  A 1.14 1.14 0.0 0 1 309.34 20.66
  Q 316.27 18.33 323.25 19.47
  Q 325.18 20.29 325.47 21.31
  Q 327.91 29.94 329.65 36.37
  Q 330.82 40.69 330.13 50.00
  Q 328.40 73.30 326.13 97.19
  C 325.16 107.36 321.36 119.32 321.12 130.50
  C 321.06 133.42 321.75 136.22 323.40 138.79
  Q 324.65 140.72 325.20 141.98
  A 11.75 11.50 -64.4 0 1 325.73 143.54
  Q 327.20 149.36 328.35 152.42
  C 333.26 165.47 331.90 179.54 330.86 192.81
  Q 330.57 196.49 329.40 200.34
  C 327.75 205.70 326.39 212.82 323.82 217.80
  C 321.67 221.96 320.33 225.78 317.30 230.47
  C 314.30 235.11 311.24 240.69 307.46 244.85
  Q 297.53 255.80 290.43 261.44
  Q 286.16 264.82 276.60 271.59
  Q 273.70 273.64 261.73 279.76
  Q 254.78 283.32 251.84 284.20
  A 9.47 9.23 22.1 0 0 250.17 284.88
  Q 244.61 287.82 243.25 288.04
  Q 237.54 288.95 232.27 291.35
  A 10.79 10.33 24.4 0 1 230.53 291.96
  C 229.43 292.24 228.24 292.63 227.24 292.74
  Q 217.36 293.90 209.26 296.20
  C 206.86 296.88 203.41 297.28 201.73 297.41
  Q 168.45 299.94 140.00 297.45
  Q 134.54 296.97 126.97 294.50
  A 4.27 4.01 56.3 0 0 126.28 294.34
  L 114.56 292.58
  Q 114.36 292.01 113.72 292.36
  Q 108.81 290.34 103.74 288.66
  Q 97.13 286.47 93.78 284.99
  Q 84.39 280.83 76.22 276.46
  Q 68.10 272.12 62.68 267.96
  C 53.03 260.54 43.97 253.50 37.04 243.71
  Q 30.13 233.96 28.50 231.52
  Q 26.32 228.23 21.05 216.92
  Q 18.35 211.13 17.65 207.77
  C 16.77 203.49 15.10 199.80 14.27 195.16
  Q 12.61 185.92 12.77 176.61
  Q 13.55 172.69 12.92 168.71
  Q 13.41 160.82 14.32 157.80
  Q 16.56 150.37 18.48 143.24
  C 19.18 140.65 21.75 137.78 22.82 134.95
  Q 24.47 130.61 26.25 127.03
  Q 26.85 125.85 26.00 123.24
  Q 23.60 115.83 23.22 111.51
  C 22.82 106.96 22.70 100.49 21.79 94.77
  Q 19.82 82.40 18.78 70.00
  L 18.77 65.30
  L 18.62 64.71
  L 18.60 63.79
  C 18.17 51.36 17.77 42.24 18.51 31.19
  Q 18.87 25.89 20.32 23.55
  C 22.55 19.95 25.17 17.38 29.27 16.80
  A 0.85 0.80 -36.5 0 1 29.69 16.85
  L 38.25 19.92
  A 7.48 7.37 -18.9 0 1 39.62 20.58
  Q 45.35 24.13 56.98 30.23
  C 58.92 31.25 60.94 33.02 62.61 33.90
  Q 74.99 40.45 87.31 46.50
  Q 96.02 50.77 98.29 52.24
  C 101.42 54.26 105.14 55.15 107.91 57.23
  Q 108.84 57.93 113.76 60.06
  Q 116.55 61.27 119.25 63.43
  A 1.49 1.48 -42.3 0 0 120.99 63.51
  Q 125.80 60.34 132.01 59.75
  C 143.17 58.69 146.41 58.42 155.83 57.06
  Q 160.61 56.37 166.00 56.46
  C 176.00 56.62 183.00 56.66 192.31 57.70
  Q 202.97 58.89 213.76 59.93
  Q 218.65 60.40 223.58 63.43
  Q 224.85 64.20 227.85 63.85
  Q 229.34 63.67 231.62 61.84
  Q 235.98 58.35 242.54 55.16
  Q 247.72 52.65 249.08 51.84
  C 251.75 50.24 254.74 49.32 257.85 47.56
  C 261.19 45.68 264.53 44.26 267.81 42.14
  Q 269.19 41.24 270.06 40.80
  Q 280.76 35.31 291.13 29.59
  Z
  M 70.55 77.98
  C 73.72 76.88 77.87 75.31 78.36 71.46
  C 79.38 63.41 76.22 61.29 70.79 56.80
  Q 62.25 49.74 50.88 37.92
  Q 45.29 32.10 39.90 29.24
  C 35.99 27.16 28.87 26.72 27.20 32.20
  C 25.10 39.05 29.09 42.10 33.36 46.32
  Q 35.27 48.21 37.02 49.61
  Q 50.58 60.49 63.28 73.72
  Q 63.86 74.32 69.55 77.87
  A 1.19 1.17 -38.2 0 0 70.55 77.98
  Z
  M 315.83 30.49
  C 314.65 28.87 311.29 28.39 309.52 28.51
  A 0.75 0.68 -60.2 0 0 309.18 28.62
  L 300.11 34.37
  A 1.30 0.65 -61.1 0 0 299.99 34.46
  Q 292.54 40.87 287.49 46.23
  Q 287.07 46.67 268.43 65.07
  A 2.81 2.74 -9.5 0 0 267.88 65.82
  Q 264.76 71.99 268.92 77.01
  A 2.51 2.40 82.1 0 0 269.73 77.65
  Q 274.62 80.09 279.19 78.57
  A 3.38 3.26 12.4 0 0 280.49 77.77
  C 284.79 73.43 290.52 69.24 295.26 64.51
  Q 299.34 60.44 307.04 53.30
  Q 309.01 51.47 316.52 42.90
  A 2.94 2.86 -14.4 0 0 317.02 42.08
  Q 319.57 35.64 315.83 30.49
  Z
  M 76.21 117.62
  L 67.14 119.30
  A 4.95 4.76 -62.8 0 0 65.80 119.76
  Q 60.51 122.58 57.73 123.73
  C 55.42 124.69 53.71 126.34 50.90 127.97
  Q 48.87 129.15 46.04 131.52
  Q 39.73 136.79 34.16 143.07
  Q 32.09 145.41 30.95 147.43
  C 28.76 151.32 26.33 155.06 30.26 158.42
  Q 34.26 161.85 37.11 163.62
  Q 39.93 165.38 42.43 168.08
  Q 44.46 170.27 48.88 173.36
  A 2.95 2.94 63.1 0 0 50.50 173.89
  L 74.26 174.39
  Q 76.48 175.67 79.74 175.17
  Q 87.44 174.00 95.66 174.12
  A 5.26 5.18 -38.3 0 1 96.57 174.22
  Q 105.86 176.20 114.61 175.55
  A 1.18 1.12 60.1 0 1 115.38 175.78
  L 119.07 178.56
  A 1.66 1.64 -24.1 0 0 119.90 178.87
  Q 126.53 179.39 131.99 179.05
  Q 135.77 178.82 138.16 177.05
  A 3.92 3.60 11.9 0 1 138.85 176.64
  Q 142.43 175.06 145.33 173.57
  Q 145.81 173.32 146.19 173.40
  C 147.50 173.68 147.19 174.70 149.17 174.59
  A 0.73 0.73 0.0 0 1 149.88 175.07
  Q 151.16 178.60 151.68 180.40
  Q 152.36 182.77 153.77 183.70
  Q 156.55 185.52 160.95 185.98
  Q 161.85 188.17 161.74 191.22
  L 161.83 192.00
  L 161.29 196.19
  A 1.52 1.51 -13.5 0 1 160.65 197.23
  L 154.27 201.58
  A 2.09 2.05 -72.2 0 1 153.89 201.78
  L 142.30 206.58
  A 2.55 2.10 9.6 0 1 141.97 206.68
  Q 123.17 211.11 104.51 207.44
  Q 102.84 207.11 98.61 205.00
  C 94.99 203.20 91.31 202.64 88.29 200.32
  C 85.48 198.16 78.82 196.56 76.48 200.48
  Q 75.34 202.39 73.24 205.62
  A 1.47 1.44 50.7 0 0 73.12 206.98
  Q 76.09 214.27 83.23 218.26
  Q 85.29 219.42 87.10 219.92
  C 90.68 220.89 93.26 222.74 96.80 223.62
  Q 99.89 224.39 105.88 225.14
  C 112.75 225.99 117.98 227.04 124.08 226.87
  Q 134.54 226.57 145.46 224.26
  Q 147.13 223.90 151.78 221.28
  Q 153.27 220.44 159.26 219.07
  Q 160.97 218.68 163.44 216.22
  A 1.29 0.99 -74.3 0 1 163.72 216.01
  L 170.65 212.09
  A 1.69 1.69 0.0 0 1 172.08 211.98
  Q 178.80 214.49 183.43 217.95
  A 7.08 6.90 -16.0 0 0 185.29 218.95
  C 188.25 220.01 190.99 220.39 194.58 222.02
  Q 198.34 223.73 202.53 224.44
  Q 219.46 227.29 236.02 224.78
  Q 236.06 224.78 239.50 224.36
  C 244.79 223.71 249.15 221.48 255.49 218.82
  A 16.30 15.78 15.9 0 0 258.22 217.36
  C 264.27 213.34 271.04 209.61 267.32 200.85
  Q 266.67 199.33 265.75 198.93
  C 262.23 197.43 257.21 197.66 254.06 198.83
  C 252.55 199.39 251.47 200.81 250.57 201.54
  A 3.12 3.09 -69.3 0 1 249.17 202.18
  Q 244.97 202.94 239.72 205.52
  Q 236.77 206.97 234.01 207.34
  Q 219.23 209.30 204.44 207.29
  A 10.09 9.99 62.1 0 1 201.28 206.30
  Q 196.16 203.70 191.26 202.65
  C 189.54 202.28 188.70 201.36 187.02 199.93
  A 6.37 6.10 77.8 0 0 185.88 199.16
  C 180.75 196.43 175.41 191.68 181.81 186.16
  A 0.71 0.52 -68.2 0 1 182.00 186.04
  L 185.83 184.23
  A 3.35 3.34 5.8 0 0 187.12 183.18
  L 191.53 177.31
  A 3.71 3.65 72.2 0 0 192.12 176.14
  Q 193.31 172.03 192.83 167.01
  Q 192.60 164.59 192.11 164.29
  A 2.79 2.62 64.3 0 0 191.15 163.92
  Q 188.74 163.54 185.25 163.49
  Q 169.65 163.30 153.20 163.66
  Q 153.23 161.76 153.87 160.31
  A 2.16 2.13 81.5 0 1 154.41 159.57
  L 157.10 157.20
  A 1.15 1.13 -23.9 0 0 157.48 156.23
  C 157.39 155.07 156.14 153.71 155.78 152.46
  C 154.80 149.11 154.16 147.20 152.44 144.77
  A 2.60 2.55 -3.6 0 0 151.56 144.01
  Q 148.69 142.55 147.83 141.05
  Q 146.82 139.28 145.69 138.73
  C 143.34 137.59 143.24 135.25 141.00 133.76
  Q 138.35 131.99 136.77 129.66
  A 1.43 1.35 87.4 0 0 136.41 129.31
  L 128.10 124.01
  A 2.34 1.71 -8.9 0 0 127.73 123.82
  Q 124.98 122.74 123.56 121.59
  A 4.98 4.97 75.5 0 0 122.36 120.88
  Q 116.79 118.53 112.96 117.15
  C 110.06 116.10 107.16 115.81 104.14 114.72
  A 2.86 2.82 -34.1 0 0 103.23 114.55
  L 95.33 114.28
  A 0.29 0.24 50.7 0 1 95.23 114.26
  Q 92.13 113.07 89.96 113.23
  Q 84.22 113.66 78.73 114.45
  A 1.43 1.42 17.1 0 0 77.86 114.91
  Q 76.86 116.05 76.21 117.62
  Z
  M 210.98 178.24
  L 220.34 178.24
  A 2.78 2.59 33.0 0 0 221.26 178.08
  Q 235.10 173.13 252.99 173.78
  C 263.77 174.17 276.22 175.29 289.24 174.72
  C 295.68 174.44 299.78 171.04 304.39 166.64
  A 6.29 6.10 7.7 0 1 305.58 165.76
  Q 307.15 164.87 310.03 163.29
  C 311.36 162.56 316.46 157.90 316.58 155.77
  A 3.21 3.13 -51.4 0 0 316.48 154.77
  C 314.87 148.44 310.75 144.20 306.17 139.05
  C 301.51 133.82 295.94 130.25 289.08 126.01
  Q 285.65 123.89 282.80 122.78
  Q 278.37 121.07 276.14 119.92
  A 11.47 11.30 -26.7 0 0 272.67 118.80
  Q 257.52 116.55 250.25 117.14
  Q 241.97 117.81 233.82 118.63
  A 11.53 11.51 27.6 0 0 229.44 120.00
  C 225.29 122.30 220.93 123.46 216.91 126.67
  A 8.44 8.27 11.9 0 1 215.45 127.60
  C 212.56 129.05 210.75 130.98 208.38 132.65
  Q 201.27 137.65 196.01 145.28
  C 194.97 146.79 192.23 148.93 191.86 150.13
  Q 189.19 158.89 195.40 165.18
  A 4.45 4.24 -80.9 0 1 196.25 166.42
  Q 197.92 170.06 201.51 173.43
  A 1.34 0.81 4.6 0 0 201.69 173.56
  L 210.22 178.06
  A 1.71 1.69 57.9 0 0 210.98 178.24
  Z
  M 217.4900 179.3031
  A 1.31 0.08 -0.3 0 0 216.1796 179.2300
  A 1.31 0.08 -0.3 0 0 214.8700 179.3169
  A 1.31 0.08 -0.3 0 0 216.1804 179.3900
  A 1.31 0.08 -0.3 0 0 217.4900 179.3031
  Z
  M 146.37 234.60
  C 144.06 241.77 146.89 247.99 154.03 250.06
  C 158.22 251.27 161.53 252.91 165.53 253.51
  Q 174.47 254.85 183.00 253.55
  A 8.62 8.52 29.4 0 0 184.86 253.04
  Q 189.12 251.34 194.33 249.96
  C 196.95 249.27 197.85 248.43 199.90 246.37
  Q 203.84 242.42 202.16 236.87
  C 201.33 234.11 197.25 232.17 195.04 231.92
  A 4.75 4.46 -42.1 0 0 193.99 231.90
  Q 188.02 232.46 182.27 235.34
  C 177.60 237.68 174.85 237.73 170.12 237.41
  Q 168.64 237.31 164.00 234.69
  Q 159.76 232.28 154.56 231.52
  Q 150.76 230.96 147.36 233.27
  A 2.61 2.59 -8.5 0 0 146.37 234.60
  Z"
/>
<path fill="#cdc7d0" d="
  M 323.25 19.47
  Q 316.27 18.33 309.34 20.66
  A 1.14 1.14 0.0 0 0 308.61 21.39
  C 307.83 23.77 304.24 24.23 300.62 25.33
  Q 298.91 25.85 296.67 28.37
  A 2.16 2.16 0.0 0 1 296.01 28.88
  Q 293.68 30.06 291.13 29.59
  Q 295.58 27.20 300.00 25.05
  Q 300.14 24.98 306.35 21.63
  Q 310.16 19.58 314.82 18.13
  Q 319.75 16.59 323.25 19.47
  Z"
/>
<path fill="#cdc7d0" d="
  M 18.62 64.71
  L 18.60 63.79
  L 18.62 64.71
  Z"
/>
<path fill="#cdc7d0" d="
  M 18.78 70.00
  L 18.77 65.30
  L 18.78 70.00
  Z"
/>
<path fill="#cdc7d0" d="
  M 153.20 163.66
  Q 150.77 166.68 151.09 173.00
  C 151.48 180.67 155.27 182.49 160.95 185.98
  Q 156.55 185.52 153.77 183.70
  Q 152.36 182.77 151.68 180.40
  Q 151.16 178.60 149.88 175.07
  A 0.73 0.73 0.0 0 0 149.17 174.59
  C 147.19 174.70 147.50 173.68 146.19 173.40
  Q 145.81 173.32 145.33 173.57
  Q 142.43 175.06 138.85 176.64
  A 3.92 3.60 11.9 0 0 138.16 177.05
  Q 135.77 178.82 131.99 179.05
  Q 126.53 179.39 119.90 178.87
  A 1.66 1.64 -24.1 0 1 119.07 178.56
  L 115.38 175.78
  A 1.18 1.12 60.1 0 0 114.61 175.55
  Q 105.86 176.20 96.57 174.22
  A 5.26 5.18 -38.3 0 0 95.66 174.12
  Q 87.44 174.00 79.74 175.17
  Q 76.48 175.67 74.26 174.39
  L 84.78 173.85
  A 3.78 2.99 13.3 0 0 85.29 173.78
  Q 92.62 172.13 99.87 172.31
  C 103.74 172.41 107.78 173.64 112.04 174.15
  Q 114.01 174.38 120.39 175.62
  Q 127.26 176.96 128.77 176.85
  Q 133.17 176.52 138.76 175.02
  Q 141.54 174.27 142.13 173.57
  Q 145.10 170.01 145.51 169.69
  Q 147.31 168.27 148.25 165.70
  C 149.23 163.01 153.88 159.24 153.92 155.51
  C 153.98 150.02 152.03 147.42 147.83 142.94
  Q 147.83 142.93 142.90 137.82
  Q 135.94 130.60 127.50 125.53
  C 123.62 123.20 119.22 121.95 115.67 119.60
  A 5.63 5.61 -22.8 0 0 113.55 118.74
  Q 108.12 117.75 103.52 117.23
  C 99.88 116.83 98.49 116.18 94.74 115.06
  C 91.81 114.18 88.26 114.87 84.98 115.77
  Q 80.71 116.95 76.21 117.62
  Q 76.86 116.05 77.86 114.91
  A 1.43 1.42 17.1 0 1 78.73 114.45
  Q 84.22 113.66 89.96 113.23
  Q 92.13 113.07 95.23 114.26
  A 0.29 0.24 50.7 0 0 95.33 114.28
  L 103.23 114.55
  A 2.86 2.82 -34.1 0 1 104.14 114.72
  C 107.16 115.81 110.06 116.10 112.96 117.15
  Q 116.79 118.53 122.36 120.88
  A 4.98 4.97 75.5 0 1 123.56 121.59
  Q 124.98 122.74 127.73 123.82
  A 2.34 1.71 -8.9 0 1 128.10 124.01
  L 136.41 129.31
  A 1.43 1.35 87.4 0 1 136.77 129.66
  Q 138.35 131.99 141.00 133.76
  C 143.24 135.25 143.34 137.59 145.69 138.73
  Q 146.82 139.28 147.83 141.05
  Q 148.69 142.55 151.56 144.01
  A 2.60 2.55 -3.6 0 1 152.44 144.77
  C 154.16 147.20 154.80 149.11 155.78 152.46
  C 156.14 153.71 157.39 155.07 157.48 156.23
  A 1.15 1.13 -23.9 0 1 157.10 157.20
  L 154.41 159.57
  A 2.16 2.13 81.5 0 0 153.87 160.31
  Q 153.23 161.76 153.20 163.66
  Z"
/>
<path fill="#ffffff" d="
  M 132.20 153.70
  Q 131.68 155.15 132.07 157.03
  Q 131.16 159.35 129.62 159.17
  C 123.74 158.50 116.95 158.20 111.32 156.54
  A 3.41 3.41 0.0 0 1 109.02 154.23
  Q 108.93 153.92 107.06 147.47
  Q 106.67 146.12 102.04 140.61
  A 3.03 2.92 -4.6 0 0 101.15 139.88
  Q 97.16 137.73 91.58 138.01
  C 85.70 138.31 81.79 143.08 80.43 148.40
  Q 79.97 150.19 75.83 155.77
  A 1.98 1.96 6.9 0 1 74.98 156.43
  C 70.86 158.14 63.92 157.77 58.64 157.54
  Q 52.71 157.28 53.06 151.87
  L 54.03 149.91
  A 2.06 2.01 -8.7 0 1 54.53 149.25
  C 56.29 147.68 57.26 145.73 59.74 144.41
  A 1.17 1.16 -6.4 0 0 60.34 143.66
  L 60.76 142.11
  Q 66.39 139.31 72.29 136.04
  Q 73.98 135.10 76.11 134.84
  Q 84.88 133.74 90.30 132.94
  A 15.47 15.14 -44.0 0 1 95.00 132.97
  Q 100.64 133.90 105.50 134.48
  C 107.38 134.70 109.65 135.45 111.84 137.10
  C 114.63 139.21 119.18 139.65 122.28 142.76
  A 7.73 6.55 0.5 0 0 123.08 143.45
  Q 129.20 147.94 131.16 149.84
  Q 132.64 151.29 132.20 153.70
  Z"
/>
<path fill="#ffffff" d="
  M 280.43 141.09
  Q 284.89 144.89 288.08 148.14
  Q 290.08 150.19 291.26 149.49
  Q 292.25 152.65 291.03 156.34
  A 1.51 1.51 0.0 0 1 289.79 157.36
  Q 279.92 158.63 269.86 157.85
  A 1.87 1.87 0.0 0 1 268.14 156.16
  Q 267.41 148.47 261.44 142.21
  Q 256.29 136.80 248.87 139.09
  A 3.72 3.67 -71.9 0 0 247.63 139.73
  L 242.92 143.37
  A 4.29 4.15 89.1 0 0 242.01 144.34
  L 237.27 151.32
  A 0.36 0.35 -17.4 0 0 237.21 151.43
  L 235.74 156.20
  A 1.75 1.75 0.0 0 1 234.20 157.43
  Q 225.21 158.12 216.82 161.07
  Q 214.27 161.96 213.17 159.06
  Q 212.05 156.12 213.15 152.52
  Q 213.72 150.70 215.79 149.22
  Q 217.07 148.31 218.35 146.46
  A 1.18 1.15 0.8 0 1 218.74 146.09
  L 228.19 140.25
  A 1.66 1.47 14.9 0 1 228.49 140.10
  C 231.42 139.10 233.83 138.70 235.99 137.18
  C 240.38 134.11 244.81 134.21 250.95 133.97
  Q 257.17 133.72 264.55 134.66
  Q 267.76 135.07 270.31 136.43
  Q 275.69 139.29 280.43 141.09
  Z"
/>
<path fill="#cdc7d0" d="
  M 291.26 149.49
  Q 290.08 150.19 288.08 148.14
  Q 284.89 144.89 280.43 141.09
  Q 287.60 144.65 291.26 149.49
  Z"
/>
<path fill="#cdc7d0" d="
  M 60.76 142.11
  L 60.34 143.66
  A 1.17 1.16 -6.4 0 1 59.74 144.41
  C 57.26 145.73 56.29 147.68 54.53 149.25
  A 2.06 2.01 -8.7 0 0 54.03 149.91
  L 53.06 151.87
  C 52.67 148.42 54.28 146.94 57.17 144.93
  Q 58.96 143.69 60.76 142.11
  Z"
/>
<path fill="#cdc7d0" d="
  M 132.20 153.70
  L 132.07 157.03
  Q 131.68 155.15 132.20 153.70
  Z"
/>
<path fill="#cdc7d0" d="
  M 12.77 176.61
  L 12.92 168.71
  Q 13.55 172.69 12.77 176.61
  Z"
/>
<ellipse fill="#cdc7d0" cx="0.00" cy="0.00" transform="translate(216.18,179.31) rotate(-0.3)" rx="1.31" ry="0.08"/>
<path fill="#cdc7d0" d="
  M 161.83 192.00
  L 161.74 191.22
  Q 162.07 191.12 161.83 192.00
  Z"
/>
<path fill="#cdc7d0" d="
  M 114.56 292.58
  Q 114.30 292.28 113.72 292.36
  Q 114.36 292.01 114.56 292.58
  Z"
/>
</svg>
