<svg width="58" height="58" viewBox="0 0 58 58" fill="none" xmlns="http://www.w3.org/2000/svg">
<path fill-rule="evenodd" clip-rule="evenodd" d="M58 29C58 45.0163 45.0163 58 29 58C12.9837 58 0 45.0163 0 29C0 12.9837 12.9837 0 29 0C45.0163 0 58 12.9837 58 29ZM28.7889 17.1908C27.3331 17.1908 25.937 17.7647 24.9077 18.7864C23.8783 19.8081 23.3 21.1938 23.3 22.6387V23.0645C23.3 23.6202 23.0776 24.1532 22.6817 24.5462C22.2858 24.9391 22.171 25.1599 21.6111 25.1599C21.0512 25.1599 20.5142 24.9391 20.1183 24.5462C19.7224 24.1532 19.5 23.6202 19.5 23.0645V22.6387C19.5 17.3156 23.4258 13 28.7889 13H29.4416C34.4441 13 38.5 17.0256 38.5 21.9908C38.5 25.1632 36.8162 28.101 34.0684 29.7203L32.599 30.5869C32.0815 30.8928 31.6529 31.3268 31.355 31.8465C31.0572 32.3661 30.9004 32.9536 30.9 33.5514V33.8699C30.9 34.4257 30.6776 34.9586 30.2817 35.3516C29.8858 35.7446 29.3488 35.9653 28.7889 35.9653C28.229 35.9653 27.692 35.7446 27.2961 35.3516C26.9002 34.9586 26.6778 34.4257 26.6778 33.8699V33.5514C26.6782 32.2267 27.0255 30.9248 27.6856 29.7734C28.3457 28.6221 29.296 27.6607 30.4432 26.9837L31.9125 26.1179C32.8236 25.5808 33.5317 24.7616 33.928 23.7861C34.3244 22.8107 34.387 21.7331 34.1062 20.7189C33.8254 19.7047 33.2167 18.8101 32.3738 18.1727C31.531 17.5353 30.5005 17.1903 29.4408 17.1908H28.7889ZM30.9 41.5954C30.9 41.0396 30.6776 40.5067 30.2817 40.1137C29.8858 39.7208 29.3488 39.5 28.7889 39.5C28.229 39.5 27.692 39.7208 27.2961 40.1137C26.9002 40.5067 26.6778 41.0396 26.6778 41.5954C26.6778 42.1511 26.9002 42.6841 27.2961 43.077C27.692 43.47 28.229 43.6908 28.7889 43.6908C29.3488 43.6908 29.8858 43.47 30.2817 43.077C30.6776 42.6841 30.9 42.1511 30.9 41.5954Z" fill="#D869EB"/>
</svg>
