<svg width="91" height="88" viewBox="0 0 91 88" fill="none" xmlns="http://www.w3.org/2000/svg">
<path d="M79 13.5C79 8.4756 91 19.1627 91 27V70C91 79.9411 82.9411 88 73 88H18C8.05888 88 0 79.9411 0 70V27C0 19.1627 12 8.47561 12 13.5V53C12 55.2092 13.7909 57 16 57H75C77.2091 57 79 55.2092 79 53V13.5Z" fill="#FD5E96"/>
<path fill-rule="evenodd" clip-rule="evenodd" d="M64 0C68.4183 6.44256e-08 72 3.58172 72 8V46C72 48.2092 70.2091 50 68 50H23C20.7909 50 19 48.2092 19 46V8C19 3.58172 22.5817 6.44257e-08 27 0H64ZM37 28C34.7909 28 33 29.7909 33 32V33C33 35.2091 34.7909 37 37 37H46C48.2091 37 50 35.2091 50 33V32C50 29.7909 48.2091 28 46 28H37ZM37 12C34.7909 12 33 13.7909 33 16V17C33 19.2091 34.7909 21 37 21H54C56.2091 21 58 19.2091 58 17V16C58 13.7909 56.2091 12 54 12H37Z" fill="#FD5E96"/>
</svg>
