<?xml version="1.0" encoding="UTF-8" standalone="no"?>
<!DOCTYPE svg PUBLIC "-//W3C//DTD SVG 1.1//EN" "http://www.w3.org/Graphics/SVG/1.1/DTD/svg11.dtd">
<svg xmlns="http://www.w3.org/2000/svg" version="1.1" viewBox="0.00 0.00 97.00 99.00">
<ellipse fill="#f85154" cx="0.00" cy="0.00" transform="translate(73.28,24.81) rotate(-87.6)" rx="22.55" ry="22.15"/>
<path fill="#ffffff" d="
  M 43.16 25.04
  L 43.16 31.19
  A 0.66 0.65 -23.5 0 1 42.98 31.64
  C 40.79 34.02 38.92 36.22 39.34 39.75
  A 0.78 0.78 0.0 0 0 40.11 40.43
  L 46.21 40.43
  A 1.32 1.30 -19.5 0 1 47.22 40.90
  Q 52.07 46.80 52.94 47.58
  Q 59.31 53.30 68.13 55.15
  A 1.31 1.31 0.0 0 1 69.12 56.78
  C 67.42 62.96 62.81 62.65 56.69 62.68
  Q 22.85 62.82 10.29 62.42
  C 4.54 62.24 2.39 58.40 2.22 53.11
  C 2.06 48.24 1.73 44.75 5.60 41.64
  A 0.76 0.64 -68.4 0 1 5.86 41.50
  L 9.97 40.15
  A 0.57 0.56 -16.7 0 0 10.34 39.48
  C 8.06 30.35 14.27 22.23 23.95 23.35
  C 29.09 23.94 31.53 25.42 35.22 27.95
  A 0.74 0.72 -42.2 0 0 36.01 27.98
  L 42.13 24.45
  A 0.69 0.68 -15.1 0 1 43.16 25.04
  Z
  M 31.67 40.44
  A 0.49 0.48 -86.7 0 0 32.15 40.01
  C 32.95 33.33 27.96 31.08 22.41 30.62
  C 16.17 30.10 14.92 38.10 20.52 40.33
  A 1.49 1.47 55.7 0 0 21.08 40.44
  L 31.67 40.44
  Z"
/>
<path fill="#ffffff" d="
  M 31.29 71.01
  Q 31.74 71.45 31.77 72.50
  Q 32.10 82.45 31.77 94.52
  A 1.83 1.82 89.7 0 1 30.03 96.29
  Q 21.10 96.69 12.82 96.33
  Q 10.23 96.22 8.20 94.20
  Q 6.17 92.18 6.05 89.58
  Q 5.66 81.31 6.02 72.37
  A 1.83 1.82 0.1 0 1 7.79 70.63
  Q 19.85 70.25 29.81 70.54
  Q 30.85 70.57 31.29 71.01
  Z"
/>
<path fill="#ffffff" d="
  M 63.24 93.95
  Q 61.10 96.10 57.47 96.21
  Q 49.82 96.44 42.45 96.35
  Q 39.80 96.32 39.76 94.00
  Q 39.58 82.17 39.83 72.54
  Q 39.86 71.60 40.35 71.10
  Q 40.85 70.60 41.80 70.57
  Q 51.42 70.31 63.25 70.46
  Q 65.57 70.50 65.61 73.15
  Q 65.71 80.52 65.49 88.17
  Q 65.39 91.80 63.24 93.95
  Z"
/>
</svg>
