<svg width="16" height="19" viewBox="0 0 16 19" fill="none" xmlns="http://www.w3.org/2000/svg">
<path fill-rule="evenodd" clip-rule="evenodd" d="M14.6667 9.83268V13.9993C14.6667 14.6624 14.4033 15.2983 13.9344 15.7671C13.4656 16.236 12.8297 16.4993 12.1667 16.4993H8.83333V9.83268H14.6667ZM7.16667 9.83268V16.4993H3.83333C3.17029 16.4993 2.53441 16.236 2.06557 15.7671C1.59673 15.2983 1.33333 14.6624 1.33333 13.9993V9.83268H7.16667ZM5.5 0.666016C5.9729 0.66599 6.4404 0.766588 6.87143 0.961128C7.30247 1.15567 7.68717 1.4397 8 1.79435C8.31282 1.4397 8.69753 1.15567 9.12857 0.961128C9.5596 0.766588 10.0271 0.66599 10.5 0.666016H10.9167C11.2482 0.666016 11.5661 0.797712 11.8005 1.03213C12.035 1.26655 12.1667 1.5845 12.1667 1.91602V2.33268C12.1667 2.94018 12.0042 3.50935 11.7208 3.99935H13.8333C14.2754 3.99935 14.6993 4.17494 15.0118 4.4875C15.3244 4.80006 15.5 5.22399 15.5 5.66602V7.33268C15.5 7.63602 15.4192 7.92102 15.2767 8.16602H8.83333V5.66602C8.83333 5.445 8.74554 5.23304 8.58926 5.07676C8.43297 4.92048 8.22101 4.83268 8 4.83268C7.77899 4.83268 7.56702 4.92048 7.41074 5.07676C7.25446 5.23304 7.16667 5.445 7.16667 5.66602V8.16602H0.723333C0.577038 7.91265 0.500013 7.62525 0.5 7.33268V5.66602C0.5 5.22399 0.675595 4.80006 0.988155 4.4875C1.30072 4.17494 1.72464 3.99935 2.16667 3.99935H4.27917C3.98687 3.49255 3.83311 2.91774 3.83333 2.33268V1.91602C3.83333 1.5845 3.96503 1.26655 4.19945 1.03213C4.43387 0.797712 4.75181 0.666016 5.08333 0.666016H5.5ZM5.5 2.33268C5.5 2.77471 5.67559 3.19863 5.98816 3.51119C6.30072 3.82375 6.72464 3.99935 7.16667 3.99935C7.16667 3.55732 6.99107 3.1334 6.67851 2.82084C6.36595 2.50828 5.94203 2.33268 5.5 2.33268ZM10.5 2.33268C10.058 2.33268 9.63405 2.50828 9.32149 2.82084C9.00893 3.1334 8.83333 3.55732 8.83333 3.99935C9.27536 3.99935 9.69928 3.82375 10.0118 3.51119C10.3244 3.19863 10.5 2.77471 10.5 2.33268Z" fill="#818181"/>
</svg>
