<?xml version="1.0" encoding="UTF-8" standalone="no"?>
<!DOCTYPE svg PUBLIC "-//W3C//DTD SVG 1.1//EN" "http://www.w3.org/Graphics/SVG/1.1/DTD/svg11.dtd">
<svg xmlns="http://www.w3.org/2000/svg" version="1.1" viewBox="0.00 0.00 319.00 315.00">
<path fill="#ffffff" d="
  M 11.93 69.12
  Q 14.45 58.36 15.48 55.45
  C 16.89 51.49 19.99 45.26 22.80 41.23
  Q 34.94 23.83 54.83 15.13
  C 60.94 12.46 67.51 11.67 73.56 9.82
  Q 77.11 8.74 87.00 8.66
  Q 160.28 8.04 233.50 8.61
  C 236.79 8.64 243.22 8.96 246.86 10.27
  Q 249.56 11.24 255.79 12.47
  Q 259.63 13.23 264.42 15.37
  Q 291.31 27.40 302.06 55.33
  Q 304.37 61.33 306.41 73.77
  Q 307.52 80.46 307.57 95.25
  Q 307.76 142.34 307.67 224.27
  Q 307.66 241.44 304.01 253.97
  Q 301.87 261.32 298.53 267.17
  Q 295.04 273.30 290.54 279.05
  C 285.31 285.75 279.88 289.51 272.66 294.51
  A 1.54 1.18 7.4 0 1 272.42 294.65
  L 261.49 299.90
  A 4.10 3.89 23.3 0 1 260.76 300.17
  L 242.51 304.65
  A 0.76 0.54 28.4 0 1 242.34 304.67
  C 225.66 305.92 203.02 304.81 192.50 304.85
  Q 160.86 304.98 126.83 304.90
  C 113.38 304.87 98.37 305.32 83.50 305.06
  Q 76.08 304.92 70.07 303.43
  Q 58.58 300.57 57.65 300.35
  A 9.18 8.89 -22.7 0 1 55.22 299.40
  C 51.35 297.22 47.53 295.86 43.86 293.35
  Q 31.42 284.84 23.03 272.38
  Q 20.67 268.88 19.39 265.94
  C 18.10 262.96 16.74 260.63 15.58 256.87
  Q 11.60 244.00 11.00 235.75
  Q 9.99 221.71 9.97 197.25
  Q 9.94 127.97 10.35 86.75
  Q 10.47 75.34 11.93 69.12
  Z
  M 174.3850 79.2130
  A 13.30 13.30 0.0 0 0 161.0618 65.9362
  L 156.5818 65.9440
  A 13.30 13.30 0.0 0 0 143.3051 79.2672
  L 143.5750 233.9070
  A 13.30 13.30 0.0 0 0 156.8982 247.1838
  L 161.3782 247.1760
  A 13.30 13.30 0.0 0 0 174.6549 233.8528
  L 174.3850 79.2130
  Z
  M 99.63 139.48
  A 13.54 13.54 0.0 0 0 86.09 125.94
  L 82.11 125.94
  A 13.54 13.54 0.0 0 0 68.57 139.48
  L 68.57 233.94
  A 13.54 13.54 0.0 0 0 82.11 247.48
  L 86.09 247.48
  A 13.54 13.54 0.0 0 0 99.63 233.94
  L 99.63 139.48
  Z
  M 249.51 169.85
  A 14.06 14.06 0.0 0 0 235.45 155.79
  L 232.55 155.79
  A 14.06 14.06 0.0 0 0 218.49 169.85
  L 218.49 233.45
  A 14.06 14.06 0.0 0 0 232.55 247.51
  L 235.45 247.51
  A 14.06 14.06 0.0 0 0 249.51 233.45
  L 249.51 169.85
  Z"
/>
</svg>
