<?xml version="1.0" encoding="UTF-8" standalone="no"?>
<!DOCTYPE svg PUBLIC "-//W3C//DTD SVG 1.1//EN" "http://www.w3.org/Graphics/SVG/1.1/DTD/svg11.dtd">
<svg xmlns="http://www.w3.org/2000/svg" version="1.1" viewBox="0.00 0.00 38.00 38.00">
<g stroke-width="2.00" fill="none" stroke-linecap="butt">
<path stroke="#323078" vector-effect="non-scaling-stroke" d="
  M 36.51 13.64
  Q 35.34 12.99 34.50 11.52
  Q 33.23 9.29 33.00 8.99
  Q 28.33 3.04 21.13 2.10
  Q 11.58 0.86 3.18 9.32"
/>
<path stroke="#9e9bd5" vector-effect="non-scaling-stroke" d="
  M 12.61 12.47
  L 24.35 12.44
  A 0.39 0.38 -0.0 0 0 24.74 12.06
  L 24.74 11.69
  A 0.70 0.70 0.0 0 0 24.04 10.99
  L 12.25 10.99
  A 2.52 2.52 0.0 0 0 9.73 13.41
  Q 9.55 17.83 9.64 25.38
  C 9.67 27.62 10.39 29.01 12.76 29.04
  Q 18.79 29.11 26.62 29.04
  A 1.18 1.18 0.0 0 0 27.79 27.86
  L 27.79 15.31
  A 1.32 1.32 0.0 0 0 26.47 13.99
  L 12.62 14.01
  A 0.74 0.74 0.0 0 1 11.88 13.27
  L 11.88 13.19
  A 0.73 0.73 0.0 0 1 12.61 12.47"
/>
<path stroke="#9e9bd5" vector-effect="non-scaling-stroke" d="
  M 26.19 21.53
  A 1.45 1.45 0.0 0 0 24.74 20.08
  A 1.45 1.45 0.0 0 0 23.29 21.53
  A 1.45 1.45 0.0 0 0 24.74 22.98
  A 1.45 1.45 0.0 0 0 26.19 21.53"
/>
</g>
<path fill="#282844" d="
  M 36.51 13.64
  Q 35.34 12.99 34.50 11.52
  Q 33.23 9.29 33.00 8.99
  Q 28.33 3.04 21.13 2.10
  Q 11.58 0.86 3.18 9.32
  Q 11.80 -3.00 26.00 2.27
  Q 33.55 5.07 36.51 13.64
  Z"
/>
<path fill="#3c37ab" d="
  M 36.51 13.64
  C 39.56 25.27 33.92 34.69 22.53 38.00
  L 15.22 38.00
  Q 2.21 34.67 0.00 21.57
  L 0.00 17.64
  Q 0.91 12.38 3.18 9.32
  Q 11.58 0.86 21.13 2.10
  Q 28.33 3.04 33.00 8.99
  Q 33.23 9.29 34.50 11.52
  Q 35.34 12.99 36.51 13.64
  Z
  M 12.61 12.47
  L 24.35 12.44
  A 0.39 0.38 -0.0 0 0 24.74 12.06
  L 24.74 11.69
  A 0.70 0.70 0.0 0 0 24.04 10.99
  L 12.25 10.99
  A 2.52 2.52 0.0 0 0 9.73 13.41
  Q 9.55 17.83 9.64 25.38
  C 9.67 27.62 10.39 29.01 12.76 29.04
  Q 18.79 29.11 26.62 29.04
  A 1.18 1.18 0.0 0 0 27.79 27.86
  L 27.79 15.31
  A 1.32 1.32 0.0 0 0 26.47 13.99
  L 12.62 14.01
  A 0.74 0.74 0.0 0 1 11.88 13.27
  L 11.88 13.19
  A 0.73 0.73 0.0 0 1 12.61 12.47
  Z"
/>
<path fill="#ffffff" d="
  M 12.61 12.47
  A 0.73 0.73 0.0 0 0 11.88 13.19
  L 11.88 13.27
  A 0.74 0.74 0.0 0 0 12.62 14.01
  L 26.47 13.99
  A 1.32 1.32 0.0 0 1 27.79 15.31
  L 27.79 27.86
  A 1.18 1.18 0.0 0 1 26.62 29.04
  Q 18.79 29.11 12.76 29.04
  C 10.39 29.01 9.67 27.62 9.64 25.38
  Q 9.55 17.83 9.73 13.41
  A 2.52 2.52 0.0 0 1 12.25 10.99
  L 24.04 10.99
  A 0.70 0.70 0.0 0 1 24.74 11.69
  L 24.74 12.06
  A 0.39 0.38 -0.0 0 1 24.35 12.44
  L 12.61 12.47
  Z
  M 26.19 21.53
  A 1.45 1.45 0.0 0 0 24.74 20.08
  A 1.45 1.45 0.0 0 0 23.29 21.53
  A 1.45 1.45 0.0 0 0 24.74 22.98
  A 1.45 1.45 0.0 0 0 26.19 21.53
  Z"
/>
<circle fill="#3c37ab" cx="24.74" cy="21.53" r="1.45"/>
</svg>
