<svg width="21" height="21" viewBox="0 0 21 21" fill="none" xmlns="http://www.w3.org/2000/svg">
<path d="M7.37533 1.125H6.33366C5.36491 1.125 4.88053 1.125 4.48366 1.23125C3.95358 1.37318 3.47022 1.65219 3.0822 2.04021C2.69418 2.42823 2.41517 2.91159 2.27324 3.44167C2.16699 3.83854 2.16699 4.32292 2.16699 5.29167M13.6253 1.125H14.667C15.6357 1.125 16.1201 1.125 16.517 1.23125C17.0471 1.37318 17.5304 1.65219 17.9184 2.04021C18.3065 2.42823 18.5855 2.91159 18.7274 3.44167C18.8337 3.83854 18.8337 4.32292 18.8337 5.29167M18.8337 13.625V14.6667C18.8337 16.6146 18.8337 17.5875 18.4149 18.3125C18.1406 18.7875 17.7462 19.182 17.2712 19.4562C16.5462 19.875 15.5732 19.875 13.6253 19.875M2.16699 13.625V14.6667C2.16699 16.6146 2.16699 17.5875 2.58574 18.3125C2.86001 18.7875 3.25447 19.182 3.72949 19.4562C4.45449 19.875 5.42741 19.875 7.37533 19.875" stroke="#91A2B1" stroke-width="1.66667" stroke-linejoin="round"/>
<path d="M1.125 13.625H19.875M5.29167 9.45833V13.625H15.7083V9.45833C15.7083 8.47604 15.7083 7.98542 15.4031 7.68021C15.0979 7.375 14.6073 7.375 13.625 7.375H7.375C6.39271 7.375 5.90208 7.375 5.59688 7.68021C5.29167 7.98542 5.29167 8.47604 5.29167 9.45833Z" stroke="#91A2B1" stroke-width="1.66667" stroke-linecap="round" stroke-linejoin="round"/>
</svg>
