<svg width="11" height="13" viewBox="0 0 11 13" fill="none" xmlns="http://www.w3.org/2000/svg">
<path d="M3.625 1V12.25M6.125 3.5H7.375M6.125 6H7.375M1.75 1H8.625C8.95652 1 9.27446 1.1317 9.50888 1.36612C9.7433 1.60054 9.875 1.91848 9.875 2.25V9.75C9.875 10.0815 9.7433 10.3995 9.50888 10.6339C9.27446 10.8683 8.95652 11 8.625 11H1.75C1.58424 11 1.42527 10.9342 1.30806 10.8169C1.19085 10.6997 1.125 10.5408 1.125 10.375V1.625C1.125 1.45924 1.19085 1.30027 1.30806 1.18306C1.42527 1.06585 1.58424 1 1.75 1Z" stroke="#767676" stroke-linecap="round" stroke-linejoin="round"/>
</svg>
