<?xml version="1.0" encoding="UTF-8" standalone="no"?>
<!DOCTYPE svg PUBLIC "-//W3C//DTD SVG 1.1//EN" "http://www.w3.org/Graphics/SVG/1.1/DTD/svg11.dtd">
<svg xmlns="http://www.w3.org/2000/svg" version="1.1" viewBox="0.00 0.00 133.00 133.00">
<g stroke-width="2.00" fill="none" stroke-linecap="butt">
<path stroke="#7c849e" vector-effect="non-scaling-stroke" d="
  M 117.07 64.12
  L 15.78 64.14"
/>
<path stroke="#7c849e" vector-effect="non-scaling-stroke" d="
  M 117.07 71.89
  L 15.77 71.92"
/>
</g>
<path fill="#e1e1e1" d="
  M 117.07 64.12
  L 15.78 64.14
  L 15.83 55.89
  A 0.52 0.52 0.0 0 1 16.35 55.38
  L 65.59 55.38
  A 2.03 1.81 -52.5 0 0 66.28 55.25
  C 72.67 52.86 82.52 48.15 79.25 39.74
  C 76.58 32.87 67.23 31.22 60.96 32.49
  Q 50.29 34.66 49.75 45.47
  A 0.65 0.65 0.0 0 1 49.10 46.09
  L 24.44 46.09
  A 0.66 0.66 0.0 0 1 23.78 45.41
  Q 24.14 31.86 33.56 23.05
  C 44.30 13.01 60.53 11.15 74.90 13.38
  C 85.51 15.02 97.38 20.28 102.66 30.41
  Q 108.70 42.00 103.06 54.80
  A 0.44 0.44 0.0 0 0 103.46 55.41
  L 116.67 55.41
  A 0.42 0.42 0.0 0 1 117.09 55.83
  L 117.07 64.12
  Z"
/>
<path fill="#16265a" d="
  M 117.07 64.12
  Q 117.21 64.50 117.16 64.89
  A 0.65 0.65 0.0 0 1 116.52 65.45
  L 94.84 65.45
  A 1.69 1.67 28.4 0 0 93.94 65.71
  L 86.93 70.12
  A 0.24 0.24 0.0 0 0 87.06 70.57
  L 116.40 70.57
  A 0.68 0.68 0.0 0 1 117.08 71.26
  L 117.07 71.89
  L 15.77 71.92
  Q 15.48 70.60 16.24 70.60
  Q 24.72 70.64 33.43 70.48
  A 1.23 1.21 -62.4 0 0 34.14 70.25
  L 40.33 65.83
  A 0.25 0.25 0.0 0 0 40.18 65.38
  Q 33.13 65.45 16.29 65.34
  Q 15.57 65.34 15.78 64.14
  L 117.07 64.12
  Z"
/>
<path fill="#e1e1e1" d="
  M 117.07 71.89
  L 117.05 80.09
  A 0.53 0.53 0.0 0 1 116.52 80.62
  L 61.35 80.62
  A 2.93 2.85 33.0 0 0 60.24 80.84
  C 55.33 82.86 51.05 85.54 50.05 91.00
  C 48.57 99.12 54.49 103.30 61.92 103.85
  C 71.37 104.54 81.34 101.99 82.59 90.83
  Q 82.83 88.65 82.87 87.63
  A 0.61 0.61 0.0 0 1 83.48 87.05
  L 108.63 87.05
  A 0.40 0.39 0.7 0 1 109.03 87.45
  C 108.68 105.95 96.47 117.31 79.17 121.65
  C 60.54 126.31 28.03 123.36 24.18 98.32
  Q 22.80 89.35 26.16 81.05
  A 0.34 0.33 -79.2 0 0 25.85 80.59
  L 16.35 80.59
  A 0.59 0.58 0.5 0 1 15.76 80.00
  L 15.77 71.92
  L 117.07 71.89
  Z"
/>
</svg>
