<svg width="68" height="22" viewBox="0 0 68 22" fill="none" xmlns="http://www.w3.org/2000/svg">
<path d="M62.9637 0.567606L67.3337 21.4309H62.327C62.127 20.5576 61.9703 19.6443 61.7703 18.7709C61.5703 17.8976 61.7703 18.3343 61.2537 18.3343H55.177C55.1115 18.3229 55.0445 18.3254 54.98 18.3415C54.9156 18.3576 54.8552 18.387 54.8028 18.4278C54.7504 18.4686 54.7071 18.5199 54.6757 18.5784C54.6442 18.6369 54.6254 18.7014 54.6203 18.7676C54.3403 19.5676 54.0637 20.3609 53.747 21.1143C53.427 21.8676 53.467 21.4709 53.347 21.4709H47.987V20.9943C50.6359 14.7165 53.2837 8.4265 55.9303 2.12427C56.0865 1.69616 56.3663 1.32408 56.7342 1.05524C57.1022 0.786399 57.5417 0.632917 57.997 0.614272C59.7437 0.534272 61.3337 0.574272 62.9637 0.574272M59.2303 6.41761L56.407 14.0076H60.857L59.2303 6.41761ZM14.3737 14.7543V14.2776C15.9637 9.86761 17.5903 5.45761 19.1403 1.04761C19.1403 0.690939 19.4603 0.53094 19.857 0.53094H25.1403V1.04761L16.917 20.9143C16.8779 21.079 16.7786 21.2231 16.6385 21.3181C16.4984 21.4131 16.3278 21.4522 16.1603 21.4276H11.5537C11.1537 21.4276 10.997 21.4276 10.877 20.9109C9.41033 15.1909 7.89699 9.47094 6.42699 3.71094C6.35538 3.41356 6.16984 3.15619 5.91033 2.99427C4.37727 2.13865 2.75254 1.4588 1.06699 0.967605C1.06699 0.967605 0.786992 0.767605 0.666992 0.690938C0.836241 0.645679 1.01441 0.645679 1.18366 0.690938H9.13033C9.46224 0.640459 9.80107 0.660673 10.1246 0.750257C10.4482 0.83984 10.7492 0.996772 11.0078 1.21077C11.2665 1.42477 11.4771 1.691 11.6257 1.99204C11.7744 2.29307 11.8577 2.62211 11.8703 2.95761L14.137 14.5943C14.1239 14.6871 14.1239 14.7814 14.137 14.8743L14.3737 14.7543ZM32.887 20.6343L33.6837 15.9843L34.2403 16.3043C36.2693 17.3527 38.5961 17.675 40.8337 17.2176C41.2614 17.181 41.6671 17.0121 41.9945 16.7343C42.3218 16.4565 42.5546 16.0837 42.6603 15.6676C42.703 15.2524 42.6102 14.8345 42.3957 14.4764C42.1812 14.1183 41.8566 13.8392 41.4703 13.6809C40.6737 13.1643 39.8037 12.7676 39.047 12.2509C38.067 11.7049 37.1598 11.0374 36.347 10.2643C35.5225 9.2779 35.0708 8.03319 35.0708 6.74761C35.0708 5.46203 35.5225 4.21731 36.347 3.23094C37.5435 1.92431 39.1077 1.01085 40.8337 0.610941C43.4633 -0.0479038 46.2294 0.0901694 48.7803 1.00761H48.9803L48.2237 5.29761C47.2208 4.99134 46.1985 4.75303 45.1637 4.58427C44.1319 4.50407 43.0954 4.50407 42.0637 4.58427C41.6913 4.659 41.3479 4.83821 41.0737 5.10094C40.9415 5.21359 40.8353 5.3536 40.7625 5.51129C40.6897 5.66898 40.652 5.84059 40.652 6.01427C40.652 6.18795 40.6897 6.35957 40.7625 6.51726C40.8353 6.67495 40.9415 6.81495 41.0737 6.92761C41.5492 7.36538 42.0648 7.74983 42.6203 8.08094C43.6537 8.71427 44.727 9.23094 45.7203 9.90761C46.542 10.41 47.2235 11.1118 47.7015 11.9479C48.1795 12.784 48.4384 13.7273 48.4544 14.6903C48.4704 15.6532 48.2428 16.6046 47.7928 17.4561C47.3428 18.3076 46.6849 19.0316 45.8803 19.5609C44.2966 20.7882 42.393 21.5334 40.397 21.7076C37.8433 21.9845 35.2609 21.6155 32.887 20.6343ZM24.067 21.4276L27.4837 0.57094H32.927L29.5103 21.4276H24.067Z" fill="#E7E7E7"/>
</svg>
